<svg width="16" height="57" viewBox="0 0 16 57" fill="none" xmlns="http://www.w3.org/2000/svg">
<path d="M7.29289 56.7071C7.68342 57.0976 8.31658 57.0976 8.7071 56.7071L15.0711 50.3431C15.4616 49.9526 15.4616 49.3195 15.0711 48.9289C14.6805 48.5384 14.0474 48.5384 13.6569 48.9289L8 54.5858L2.34314 48.9289C1.95262 48.5384 1.31945 48.5384 0.92893 48.9289C0.538406 49.3195 0.538406 49.9526 0.92893 50.3431L7.29289 56.7071ZM7 -4.37114e-08L7 2.33333L9 2.33333L9 4.37114e-08L7 -4.37114e-08ZM7 7L7 11.6667L9 11.6667L9 7L7 7ZM7 16.3333L7 21L9 21L9 16.3333L7 16.3333ZM7 25.6667L7 30.3333L9 30.3333L9 25.6667L7 25.6667ZM7 35L7 39.6667L9 39.6667L9 35L7 35ZM7 44.3333L7 49L9 49L9 44.3333L7 44.3333ZM7 53.6667L7 56L9 56L9 53.6667L7 53.6667Z" fill="#C4C4C4"/>
</svg>
