<svg width="24" height="24" viewBox="0 0 24 24" fill="none" xmlns="http://www.w3.org/2000/svg">
<path fill-rule="evenodd" clip-rule="evenodd" d="M4 5.92134C4 4.86067 4.86067 4 5.92134 4C6.98134 4 7.84201 4.86067 7.84268 5.92134C7.84268 6.98201 6.98201 7.86068 5.92134 7.86068C4.86067 7.86068 4 6.98201 4 5.92134ZM19.996 20.0001V19.9995H20V14.1314C20 11.2608 19.382 9.04943 16.026 9.04943C14.4127 9.04943 13.33 9.93476 12.888 10.7741H12.8413V9.31743H9.65932V19.9995H12.9727V14.7101C12.9727 13.3174 13.2367 11.9708 14.9614 11.9708C16.6607 11.9708 16.686 13.5601 16.686 14.7994V20.0001H19.996ZM4.264 9.31798H7.58134V20H4.264V9.31798Z" fill="white"/>
</svg>
