<svg width="94" height="25" viewBox="0 0 94 25" fill="none" xmlns="http://www.w3.org/2000/svg">
<g clip-path="url(#clip0)">
<path d="M6.8514 17.1106C2.36023 14.9188 0.847291 9.3493 3.13958 4.42545C3.96117 2.66067 5.20992 1.23912 6.69116 0.237134C4.31907 1.34598 2.30766 3.26457 1.11357 5.82636C-1.58387 11.6134 0.910892 18.4912 6.68577 21.1884C12.4607 23.8856 19.3289 21.3808 22.0263 15.5938C24.4 10.5012 22.7644 4.37926 18.388 1.3742C14.0114 -1.63085 7.84028 0.627234 5.87264 5.64443C7.7768 4.26977 10.3466 3.93936 12.6234 5.00277C15.9737 6.56755 17.421 10.5577 15.8562 13.915C14.3726 17.0976 10.2568 18.7724 6.8514 17.1106Z" fill="#49596B"/>
<path d="M34.8465 19.3556C38.1824 19.3556 41.1846 17.5081 41.1846 13.9926C41.1846 10.9904 38.8495 9.57905 36.1808 8.83493L34.205 8.27037C32.3574 7.75718 32.2291 6.83343 32.2291 6.39718C32.2291 5.21683 33.2812 4.37005 34.6668 4.37005C36.2065 4.37005 37.0789 5.34513 37.0789 6.60249H40.6458C40.6458 3.241 38.0797 1.21385 34.7438 1.21385C31.3566 1.21385 28.6366 3.31798 28.6366 6.47418C28.6366 8.06512 29.3294 10.4002 33.2042 11.4266L35.3597 12.0424C36.8736 12.5043 37.5922 13.1971 37.5922 14.1722C37.5922 15.4296 36.54 16.2507 34.9491 16.2507C33.3068 16.2507 32.0751 15.1986 32.0495 13.9156H28.4826C28.4826 17.0462 31.0743 19.3556 34.8465 19.3556Z" fill="#49596B"/>
<path d="M45.0113 5.03721C46.1916 5.03721 47.1411 4.1391 47.1411 3.01006C47.1411 1.88102 46.1916 1.00857 45.0113 1.00857C43.8566 1.00857 42.8814 1.88102 42.8814 3.01006C42.8814 4.1391 43.8566 5.03721 45.0113 5.03721ZM43.3433 19.1246H46.7049V7.16699H43.3433V19.1246Z" fill="#49596B"/>
<path d="M61.144 19.1246L56.448 12.6326L60.3998 7.16699H56.448L54.6005 9.91262L52.7017 7.16699H48.7243L52.676 12.6326L47.9288 19.1246H51.8805L54.5748 15.3012L57.2179 19.1246H61.144Z" fill="#49596B"/>
<path d="M62.3893 19.1246H65.751V0.777628H62.3893V19.1246Z" fill="#49596B"/>
<path d="M80.472 12.9406C80.472 9.27112 77.6752 6.85905 74.2624 6.85905C70.8238 6.85905 67.8986 9.27112 67.8986 13.1458C67.8986 16.8409 70.5926 19.3556 74.2624 19.3556C76.3667 19.3556 78.4704 18.5344 79.5997 17.0205L77.6238 15.0447C76.9056 15.8914 75.6993 16.379 74.493 16.379C72.8768 16.379 71.7476 15.6092 71.3885 14.2236H80.4206C80.4463 13.6847 80.472 13.2741 80.472 12.9406ZM71.3885 12.0424C71.7476 10.4259 72.9539 9.78437 74.3138 9.78437C75.8278 9.78437 77.0078 10.6311 77.1106 12.0424H71.3885Z" fill="#49596B"/>
<path d="M89.9861 7.16699L87.2406 14.0696L84.4175 7.16699H80.7227L85.444 17.9956L82.6215 25.0008H86.2142L93.6044 7.16699H89.9861Z" fill="#49596B"/>
<path d="M8.0776 14.2668C9.85915 15.103 11.9779 14.3265 12.81 12.5324C13.6421 10.7384 12.8725 8.60605 11.0909 7.76987C9.30943 6.93368 7.19067 7.71018 6.35859 9.50424C5.52646 11.2983 6.29611 13.4306 8.0776 14.2668Z" fill="#49596B"/>
</g>
<defs>
<clipPath id="clip0">
<rect width="94" height="25" fill="white"/>
</clipPath>
</defs>
</svg>
