<svg width="48" height="48" viewBox="0 0 48 48" fill="none" xmlns="http://www.w3.org/2000/svg">
<rect x="7" y="7" width="34" height="34" fill="url(#paint0_linear)"/>
<path d="M7 7V6C6.44772 6 6 6.44772 6 7H7ZM7 41H6C6 41.5523 6.44772 42 7 42V41ZM28 8C28.5523 8 29 7.55228 29 7C29 6.44772 28.5523 6 28 6V8ZM33 6C32.4477 6 32 6.44772 32 7C32 7.55228 32.4477 8 33 8V6ZM35 8C35.5523 8 36 7.55228 36 7C36 6.44772 35.5523 6 35 6V8ZM33 40C32.4477 40 32 40.4477 32 41C32 41.5523 32.4477 42 33 42V40ZM35 42C35.5523 42 36 41.5523 36 41C36 40.4477 35.5523 40 35 40V42ZM42 7C42 6.44772 41.5523 6 41 6C40.4477 6 40 6.44772 40 7H42ZM40 9C40 9.55228 40.4477 10 41 10C41.5523 10 42 9.55228 42 9H40ZM42 15C42 14.4477 41.5523 14 41 14C40.4477 14 40 14.4477 40 15H42ZM40 17C40 17.5523 40.4477 18 41 18C41.5523 18 42 17.5523 42 17H40ZM42 23C42 22.4477 41.5523 22 41 22C40.4477 22 40 22.4477 40 23H42ZM40 25C40 25.5523 40.4477 26 41 26C41.5523 26 42 25.5523 42 25H40ZM42 31C42 30.4477 41.5523 30 41 30C40.4477 30 40 30.4477 40 31H42ZM40 33C40 33.5523 40.4477 34 41 34C41.5523 34 42 33.5523 42 33H40ZM42 39C42 38.4477 41.5523 38 41 38C40.4477 38 40 38.4477 40 39H42ZM40 41C40 41.5523 40.4477 42 41 42C41.5523 42 42 41.5523 42 41H40ZM27 42C27.5523 42 28 41.5523 28 41C28 40.4477 27.5523 40 27 40V42ZM25 4C25 3.44772 24.5523 3 24 3C23.4477 3 23 3.44772 23 4H25ZM23 44C23 44.5523 23.4477 45 24 45C24.5523 45 25 44.5523 25 44H23ZM8 41V7H6V41H8ZM33 8H35V6H33V8ZM33 42H35V40H33V42ZM40 7V9H42V7H40ZM40 15V17H42V15H40ZM40 23V25H42V23H40ZM40 31V33H42V31H40ZM40 39V41H42V39H40ZM23 4V44H25V4H23ZM7 8H28V6H7V8ZM27 40H7V42H27V40Z" fill="#118AE0"/>
<defs>
<linearGradient id="paint0_linear" x1="5.787" y1="26.2262" x2="40.968" y2="26.3878" gradientUnits="userSpaceOnUse">
<stop stop-color="#4FB6E8" stop-opacity="0.29"/>
<stop offset="1" stop-color="#118AE0" stop-opacity="0"/>
</linearGradient>
</defs>
</svg>
