<svg width="48" height="48" viewBox="0 0 48 48" fill="none" xmlns="http://www.w3.org/2000/svg">
<path d="M15.5 9L7 14V24V34L15.5 39L24 44L32.5001 39L41 34V24V14L32.5001 9L24 4L15.5 9Z" fill="url(#paint0_linear)"/>
<path fill-rule="evenodd" clip-rule="evenodd" d="M24.5233 3.14768C24.3711 3.05402 24.1919 3 24 3C23.8097 3 23.6318 3.05316 23.4804 3.14544L14.9929 8.13807L6.50797 13.1292C6.39265 13.1942 6.28892 13.283 6.20478 13.3936C6.16655 13.4437 6.13316 13.4973 6.10506 13.5537C6.03232 13.6991 5.99827 13.8554 5.99993 14.0098V24V33.988C5.99805 34.1336 6.02795 34.2811 6.09239 34.42C6.11931 34.4781 6.15175 34.5336 6.18928 34.5855C6.27555 34.7053 6.38454 34.8009 6.50676 34.8701L14.9929 39.8619L23.4804 44.8546C23.6181 44.9385 23.7777 44.99 23.9485 44.9987C23.9656 44.9996 23.9827 45 24 45C24.0178 45 24.0355 44.9995 24.053 44.9986C24.2248 44.9896 24.3851 44.9373 24.5232 44.8524L33.007 39.8619L32.5 39L33.0071 39.8619L41.4897 34.8721C41.639 34.7884 41.7689 34.6652 41.8619 34.507C41.9595 34.3411 42.0038 34.1585 41.9999 33.9792V24V14.0196C42.0038 13.8319 41.9549 13.6411 41.848 13.47C41.7556 13.3221 41.6309 13.2068 41.4887 13.1273L33.0071 8.13807L32.5 9L33.007 8.13806L24.5233 3.14768ZM23 5.74837L16.007 9.86193L8.92823 14.0259L15.53 18.152C15.9983 18.4447 16.1407 19.0617 15.848 19.53C15.5553 19.9983 14.9383 20.1407 14.47 19.848L7.99993 15.8042V24V32.2516L23 23.4281V5.74837ZM8.97228 34L16.007 38.1381L23 42.2516V34C23 33.4477 23.4477 33 24 33C24.5523 33 25 33.4477 25 34V42.2515L31.993 38.1381L39.0277 34L24 25.1602L8.97228 34ZM39.9999 32.2515L25 23.4281V5.74845L31.993 9.86194L39.0717 14.0259L32.47 18.152C32.0017 18.4447 31.8593 19.0617 32.152 19.53C32.4447 19.9983 33.0617 20.1407 33.53 19.848L39.9999 15.8043V24V32.2515Z" fill="#118AE0"/>
<defs>
<linearGradient id="paint0_linear" x1="5.787" y1="26.619" x2="40.9682" y2="26.7564" gradientUnits="userSpaceOnUse">
<stop stop-color="#4FB6E8" stop-opacity="0.29"/>
<stop offset="1" stop-color="#118AE0" stop-opacity="0"/>
</linearGradient>
</defs>
</svg>
