<svg width="147" height="120" viewBox="0 0 147 120" fill="none" xmlns="http://www.w3.org/2000/svg">
<path fill-rule="evenodd" clip-rule="evenodd" d="M60.8895 0C79.0589 0 95.367 7.85456 106.535 20.2473C106.8 20.5964 107.066 20.8582 107.421 21.2073C109.459 23.2145 111.587 23.6509 114.511 23.3018C116.55 23.04 118.5 22.2545 120.272 20.9455C121.602 19.8982 122.577 18.5891 123.286 17.1927C125.147 13.3527 123.463 10.56 125.856 6.45818C126.565 5.32363 127.451 4.27636 128.515 3.40363C130.908 1.48363 133.922 0.698187 136.846 0.960005C139.683 1.22182 142.519 2.61817 144.469 5.06181C146.419 7.41817 147.216 10.3855 146.95 13.2655C146.684 16.0582 145.266 18.8509 142.785 20.7709C141.455 21.9054 139.86 22.6036 138.264 22.9527C133.39 24.0873 131.44 21.7309 127.451 21.5564C126.122 21.4691 124.793 21.7309 123.463 22.08C116.373 24.4364 114.423 30.3709 117.348 37.44C120.184 44.4218 121.779 52.0145 121.779 60.0436C121.779 93.2073 94.4807 120 60.8895 120C27.2984 120 0 93.12 0 60.0436C0 26.88 27.2984 0 60.8895 0Z" fill="url(#paint0_linear)"/>
<path fill-rule="evenodd" clip-rule="evenodd" d="M110.588 16.687C113.338 16.687 115.588 14.437 115.588 11.687C115.588 8.93701 113.338 6.68701 110.588 6.68701C107.838 6.68701 105.588 8.93701 105.588 11.687C105.671 14.437 107.921 16.687 110.588 16.687Z" fill="url(#paint1_linear)"/>
<path fill-rule="evenodd" clip-rule="evenodd" d="M63.151 0.0437026C62.8446 0.0218513 62.5383 0 62.2319 0L63.9825 10.5754L65.3829 19.228L69.2341 43.3503C68.6214 43.6125 68.0087 44.0495 67.5711 44.6613C66.9584 45.5353 66.6958 46.5841 66.8709 47.5455C67.0459 48.5069 67.5711 49.4683 68.4464 50.0801C69.3216 50.6919 70.372 50.9541 71.3348 50.7793C72.2976 50.6045 73.2604 50.0801 73.8731 49.2061C74.4858 48.3321 74.7483 47.2833 74.5733 46.3219C74.3982 45.3605 73.8731 44.3991 72.9978 43.7873C72.3851 43.3503 71.6849 43.1755 70.9847 43.0881L67.1335 18.9658L64.07 0.0874052C63.7637 0.0874052 63.4573 0.0655539 63.151 0.0437026ZM68.8817 45.4055C68.5316 45.8425 68.444 46.4543 68.5316 46.9787C68.6191 47.5031 68.8817 48.0275 69.4068 48.3771C69.8445 48.7267 70.4572 48.8141 70.9823 48.7267C71.5075 48.6393 72.0327 48.3771 72.3828 47.8527C72.7329 47.4157 72.8204 46.8039 72.7329 46.2795C72.6454 45.7551 72.3828 45.2307 71.8576 44.8811C71.42 44.5315 70.8073 44.4441 70.2821 44.5315C69.6694 44.7063 69.1443 44.9685 68.8817 45.4055Z" fill="url(#paint2_linear)"/>
<path fill-rule="evenodd" clip-rule="evenodd" d="M78.8621 10.7502L91.3785 8.73999C91.7312 8.97474 92.0838 9.19198 92.4208 9.39955C92.8365 9.65565 93.2283 9.89702 93.5667 10.1384L79.1247 12.4982C79.1247 13.1974 78.8621 13.8966 78.4245 14.5084C77.8118 15.3824 76.849 15.9068 75.8862 16.0816C74.9234 16.2564 73.8731 15.9942 72.9978 15.3824C72.1225 14.7706 71.5974 13.8092 71.4223 12.8478C71.2473 11.8864 71.5098 10.8376 72.1225 9.96358C72.7352 9.08958 73.698 8.56519 74.6608 8.39039C75.6236 8.21559 76.674 8.47778 77.5492 9.08958C78.1619 9.52658 78.5996 10.051 78.8621 10.7502ZM73.523 11.0124C73.8731 10.488 74.3983 10.2258 74.9234 10.1384C75.5361 10.051 76.0613 10.2258 76.4989 10.488C77.0241 10.8376 77.2866 11.362 77.3742 11.8864C77.4617 12.4108 77.3742 13.0226 77.0241 13.4596C76.674 13.984 76.1488 14.2462 75.6236 14.3336C75.0985 14.421 74.4858 14.3336 74.0481 13.984C73.523 13.6344 73.2604 13.11 73.1729 12.5856C73.0853 12.0612 73.1729 11.4494 73.523 11.0124Z" fill="url(#paint3_linear)"/>
<path fill-rule="evenodd" clip-rule="evenodd" d="M80.7002 22.0247L103.282 18.354L104.858 19.9272L81.0503 23.7727C80.9628 24.4719 80.7002 25.1712 80.2626 25.783C79.6499 26.657 78.6871 27.1813 77.7243 27.3561C76.7615 27.5309 75.7112 27.2688 74.8359 26.657C73.9606 26.0452 73.4354 25.0838 73.2604 24.1224C73.0853 23.161 73.3479 22.1122 73.9606 21.2382C74.5733 20.3642 75.5361 19.8398 76.4989 19.665C77.4617 19.4902 78.512 19.7524 79.3873 20.3642C80 20.8012 80.4376 21.413 80.7002 22.0247ZM75.8862 25.1712C76.3238 25.5208 76.9365 25.6081 77.4617 25.5207C77.9869 25.4333 78.512 25.1711 78.8621 24.6467C79.2123 24.2097 79.2998 23.598 79.2122 23.0736C79.1247 22.5492 78.7746 22.0248 78.337 21.6752C77.8993 21.3256 77.2866 21.2382 76.7615 21.3256C76.2363 21.413 75.7112 21.7626 75.361 22.1996C75.0109 22.6366 74.9234 23.2483 75.0109 23.7727C75.0984 24.2971 75.4486 24.8216 75.8862 25.1712Z" fill="url(#paint4_linear)"/>
<path fill-rule="evenodd" clip-rule="evenodd" d="M93.8293 109.687C94.9671 108.9 96.0174 108.114 97.0677 107.327L82.2757 109.774C82.0131 109.162 81.5755 108.551 80.9628 108.114C80.0875 107.502 79.0372 107.24 78.0744 107.414C77.1116 107.589 76.1488 108.114 75.5361 108.988C74.9234 109.862 74.6608 110.91 74.8359 111.872C75.0109 112.833 75.5361 113.795 76.4114 114.406C77.2866 115.018 78.337 115.28 79.2998 115.106C80.2626 114.931 81.2254 114.406 81.8381 113.532C82.2757 112.921 82.4508 112.221 82.5383 111.522L93.8293 109.687ZM79.0372 113.183C78.512 113.27 77.8993 113.183 77.4617 112.833C76.9365 112.484 76.674 112.047 76.5864 111.435C76.4989 110.91 76.5864 110.299 76.9365 109.862C77.2866 109.337 77.8118 109.075 78.337 108.988C78.8621 108.9 79.4748 108.988 79.9125 109.337C80.4376 109.687 80.7002 110.211 80.7877 110.736C80.8753 111.26 80.7877 111.872 80.4376 112.309C80.0875 112.833 79.5623 113.095 79.0372 113.183Z" fill="url(#paint5_linear)"/>
<path fill-rule="evenodd" clip-rule="evenodd" d="M68.9715 95.2658L72.7352 118.689C72.3783 118.791 72.051 118.863 71.7016 118.94C71.4512 118.995 71.1894 119.053 70.8971 119.126L67.046 95.091L70.2844 87.8369C69.5842 87.2251 69.1466 86.3511 68.9715 85.4771C68.7965 84.5157 69.0591 83.4669 69.6718 82.5929C70.2845 81.7189 71.2473 81.1945 72.2101 81.0197C73.1729 80.8449 74.2232 81.1071 75.0985 81.7189C75.9737 82.3307 76.4989 83.2921 76.674 84.2535C76.849 85.2149 76.5864 86.2636 75.9737 87.1376C75.361 88.0116 74.3982 88.5361 73.4354 88.7109C72.9103 88.7983 72.3851 88.7982 71.86 88.6235L68.9715 95.2658ZM70.7221 85.1275C70.8096 85.6519 71.1597 86.1763 71.5974 86.5259C72.1225 86.8755 72.6477 86.9629 73.1729 86.8755C73.698 86.7881 74.2232 86.4385 74.5733 86.0015C74.9234 85.5645 75.0109 84.9527 74.9234 84.4283C74.8359 83.9039 74.4858 83.3795 74.0481 83.0299C73.6105 82.6803 72.9978 82.5929 72.4726 82.6803C71.9475 82.7677 71.4223 83.1173 71.0722 83.5543C70.7221 83.9913 70.6346 84.6031 70.7221 85.1275Z" fill="url(#paint6_linear)"/>
<path fill-rule="evenodd" clip-rule="evenodd" d="M64.4639 119.913C64.7702 119.891 65.0766 119.869 65.3829 119.825L59.8687 85.9141L64.6827 74.9891C65.2079 75.1639 65.6455 75.1639 66.1707 75.0765C67.1335 74.9017 68.0963 74.3773 68.709 73.5033C69.3217 72.6293 69.5842 71.5805 69.4092 70.6191C69.2341 69.6577 68.709 68.6963 67.8337 68.0845C66.9584 67.4727 65.9081 67.2105 64.9453 67.3853C63.9825 67.5601 63.0197 68.0845 62.407 68.9585C61.7943 69.8325 61.5317 70.8813 61.7068 71.8427C61.8818 72.8041 62.3195 73.6781 63.1072 74.2899L58.0306 85.7393L63.5449 120C63.8512 119.956 64.1575 119.934 64.4639 119.913ZM67.3085 72.4545C66.9584 72.9789 66.4332 73.2411 65.9081 73.3285C65.3829 73.3285 64.7702 73.2411 64.3326 72.9789C63.8074 72.6293 63.5449 72.1049 63.4573 71.5805C63.3698 71.0561 63.4573 70.4443 63.8074 70.0073C64.1575 69.4829 64.6827 69.2207 65.2079 69.1333C65.733 69.0459 66.3457 69.1333 66.7834 69.4829C67.3085 69.8325 67.5711 70.3569 67.6586 70.8813C67.7462 71.4057 67.6586 72.0175 67.3085 72.4545Z" fill="url(#paint7_linear)"/>
<path fill-rule="evenodd" clip-rule="evenodd" d="M54.442 119.738C55.0547 119.825 55.6674 119.913 56.2801 119.913L52.4289 95.8776H52.5164C53.4792 95.4406 54.267 94.654 54.6171 93.6926C54.9672 92.7312 54.9672 91.595 54.5295 90.721C54.0919 89.7596 53.3041 88.9731 52.3413 88.6235C51.3785 88.2738 50.2407 88.2739 49.3654 88.7109C48.4026 89.1479 47.6149 89.9345 47.2648 90.8959C46.9147 91.8573 46.9147 92.9934 47.3523 93.8674C47.7899 94.8288 48.5777 95.6154 49.5405 95.965C49.8906 96.1398 50.3282 96.2272 50.6783 96.2272L54.442 119.738ZM52.954 93.2556C52.6915 93.78 52.3413 94.2171 51.8162 94.3919C51.291 94.5667 50.7659 94.5667 50.2407 94.3919C49.7155 94.1297 49.2779 93.78 49.1028 93.2556C48.9278 92.8186 48.9278 92.2068 49.1028 91.6824C49.3654 91.1581 49.7155 90.7211 50.2407 90.5463C50.6783 90.3715 51.291 90.3715 51.8162 90.5463C52.3413 90.8085 52.779 91.1581 52.954 91.6824C53.1291 92.1194 53.1291 92.7312 52.954 93.2556Z" fill="url(#paint8_linear)"/>
<path fill-rule="evenodd" clip-rule="evenodd" d="M45.2503 118.252L45.2516 118.252L43.326 106.715C43.4136 106.672 43.4792 106.65 43.5449 106.628C43.6105 106.606 43.6761 106.584 43.7637 106.54C44.7265 106.103 45.5142 105.317 45.8643 104.355C46.2144 103.394 46.2144 102.258 45.7768 101.384C45.3392 100.422 44.5514 99.6358 43.5886 99.2862C42.6258 98.9366 41.488 98.9366 40.6127 99.3736C39.6499 99.8106 38.8621 100.597 38.512 101.559C38.1619 102.52 38.1619 103.656 38.5996 104.53C39.0372 105.492 39.8249 106.278 40.7877 106.628C41.0503 106.715 41.3129 106.803 41.5755 106.803L43.326 117.728C44.0257 117.902 44.638 118.077 45.2503 118.252ZM44.2888 103.744C44.0263 104.268 43.6761 104.705 43.151 104.88C42.6258 105.142 42.1007 105.142 41.5755 104.967C41.0503 104.705 40.6127 104.355 40.4376 103.831C40.2626 103.307 40.2626 102.695 40.4376 102.17C40.7002 101.646 41.0503 101.209 41.5755 101.034C42.0131 100.859 42.6258 100.859 43.151 101.034C43.6761 101.296 44.1138 101.646 44.2888 102.17C44.4639 102.607 44.4639 103.219 44.2888 103.744Z" fill="url(#paint9_linear)"/>
<path fill-rule="evenodd" clip-rule="evenodd" d="M23.1947 107.502C23.7199 107.939 24.1575 108.288 24.6827 108.638L26.2582 104.88C26.7834 105.055 27.221 105.055 27.7462 104.967C28.709 104.792 29.6718 104.268 30.2845 103.394C30.8972 102.52 31.1597 101.471 30.9847 100.51C30.8096 99.5484 30.2845 98.5871 29.4092 97.9753C28.5339 97.3634 27.4836 97.1012 26.5208 97.276C25.558 97.4508 24.5952 97.9753 23.9825 98.8493C23.3698 99.7233 23.1072 100.772 23.2823 101.733C23.4573 102.695 23.895 103.569 24.6827 104.181L23.1947 107.502ZM28.884 102.345C28.5339 102.87 28.0087 103.132 27.4836 103.219C26.9584 103.307 26.3457 103.219 25.9081 102.87C25.3829 102.52 25.1203 101.996 25.0328 101.471C24.9453 100.947 25.0328 100.335 25.3829 99.898C25.733 99.3736 26.2582 99.1114 26.7834 99.024C27.3085 98.9366 27.9212 99.024 28.3589 99.3736C28.884 99.7232 29.1466 100.248 29.2341 100.772C29.3217 101.296 29.2341 101.908 28.884 102.345Z" fill="url(#paint10_linear)"/>
<path fill-rule="evenodd" clip-rule="evenodd" d="M8.57768 91.2018C8.75273 91.4858 8.92778 91.7698 9.10284 92.032L28.9715 88.7983C29.2341 89.5849 29.6718 90.1966 30.372 90.721C31.2472 91.3328 32.2976 91.5951 33.2604 91.4203C34.2232 91.2455 35.186 90.721 35.7987 89.847C36.4114 88.973 36.6739 87.9243 36.4989 86.9629C36.3238 86.0015 35.7987 85.0401 34.9234 84.4283C34.0481 83.8165 32.9978 83.5543 32.035 83.7291C31.0722 83.9039 30.1094 84.4283 29.4967 85.3023C29.1466 85.8267 28.884 86.4385 28.7965 87.0503L8.05251 90.3715C8.22757 90.6337 8.40262 90.9177 8.57768 91.2018ZM34.6608 87.225C34.7484 87.7494 34.6608 88.3613 34.3107 88.7983C34.0481 89.2353 33.523 89.5849 32.9103 89.6723C32.3851 89.7597 31.7724 89.6722 31.3348 89.3226C30.8096 88.973 30.547 88.4487 30.4595 87.9243C30.372 87.3999 30.4595 86.788 30.8096 86.3511C31.1597 85.8267 31.6849 85.5645 32.2101 85.4771C32.7352 85.3897 33.3479 85.477 33.7856 85.8266C34.3107 86.1762 34.5733 86.7006 34.6608 87.225Z" fill="url(#paint11_linear)"/>
<path fill-rule="evenodd" clip-rule="evenodd" d="M39.1247 79.4465L5.16411 84.8653C5.06524 84.6349 4.97878 84.4169 4.89538 84.2067C4.75729 83.8586 4.6276 83.5316 4.46389 83.2047L38.8621 77.6985C38.8621 76.9993 39.1247 76.3001 39.5623 75.6883C40.175 74.8143 41.1379 74.2899 42.1007 74.1151C43.0635 73.9403 44.1138 74.2025 44.9891 74.8143C45.8643 75.4261 46.3895 76.3875 46.5645 77.3489C46.7396 78.3103 46.477 79.3591 45.8643 80.2331C45.2516 81.1071 44.2888 81.6315 43.326 81.8063C42.3632 81.9811 41.3129 81.7189 40.4376 81.1071C39.8249 80.6701 39.3873 80.0583 39.1247 79.4465ZM40.7002 78.2229C40.7002 78.3977 40.7877 78.6599 40.8753 78.8347C41.0503 79.0969 41.2254 79.3591 41.4004 79.8835C41.8381 80.2331 42.4508 80.3205 42.9759 80.2331C43.5011 80.1457 44.0262 79.7961 44.3763 79.3591C44.7265 78.9221 44.814 78.4851 44.814 78.0481V77.7859C44.7265 77.2615 44.3763 76.7371 43.9387 76.3875C43.5011 76.0379 42.8884 75.9505 42.3632 76.0379C41.8381 76.1253 41.3129 76.4749 40.9628 76.9119C40.919 76.9993 40.8753 77.1085 40.8315 77.2178C40.7877 77.327 40.744 77.4363 40.7002 77.5237V78.2229Z" fill="url(#paint12_linear)"/>
<path fill-rule="evenodd" clip-rule="evenodd" d="M1.61925 74.5521C1.68489 74.8361 1.75054 75.1202 1.83807 75.4261L28.9715 71.0561C29.2341 71.6679 29.6718 72.2797 30.2845 72.7167C31.1597 73.3285 32.2101 73.5907 33.1729 73.4159C34.1357 73.2411 35.0985 72.7167 35.7111 71.8427C36.3238 70.9687 36.5864 69.9199 36.4114 68.9585C36.2363 67.9971 35.7111 67.0357 34.8359 66.4239C33.9606 65.8121 32.9103 65.5499 31.9475 65.7247C30.9847 65.8995 30.0219 66.4239 29.4092 67.2979C28.884 67.9097 28.709 68.6089 28.6214 69.3081L1.40043 73.6781C1.48796 73.984 1.5536 74.268 1.61925 74.5521ZM31.3348 71.3183C30.8096 70.9687 30.547 70.4443 30.4595 69.9199C30.372 69.3081 30.4595 68.7837 30.8096 68.3467L30.9847 68.1719C31.2473 67.8223 31.6849 67.6475 32.1225 67.5601C32.6477 67.4727 33.2604 67.5601 33.698 67.9097C34.2232 68.2593 34.4858 68.7837 34.5733 69.3081C34.6608 69.8325 34.5733 70.4443 34.2232 70.8813L33.8731 71.2309C33.6105 71.4931 33.2604 71.5805 32.9103 71.6679C32.3851 71.7553 31.7724 71.6679 31.3348 71.3183Z" fill="url(#paint13_linear)"/>
<path fill-rule="evenodd" clip-rule="evenodd" d="M3.8512 59.6941L0 55.4115C0.0875218 54.625 0.17506 53.8383 0.350104 53.1391L5.16411 58.4705C5.60175 58.1209 6.12691 57.9461 6.65207 57.8587C7.61487 57.6839 8.6652 57.9461 9.54047 58.5579C10.4157 59.1697 10.9409 60.1311 11.116 61.0925C11.291 62.0539 11.0284 63.1027 10.4157 63.9767C9.80306 64.8507 8.84026 65.3751 7.87746 65.5499C6.91466 65.7247 5.86433 65.4625 4.98906 64.8507C4.11378 64.2389 3.58862 63.2775 3.41356 62.3161C3.23851 61.4421 3.41356 60.4807 3.8512 59.6941ZM6.91465 59.5193C6.38949 59.6067 5.86432 59.9563 5.51421 60.3933C5.1641 60.9177 4.98905 61.4421 5.16411 61.9665C5.25164 62.4909 5.60174 63.0153 6.03938 63.3649C6.47702 63.7145 7.08971 63.8019 7.61488 63.7145C8.14004 63.6271 8.6652 63.2775 9.01531 62.8405C9.36542 62.4035 9.45295 61.7917 9.36542 61.2673C9.2779 60.7429 8.92779 60.2185 8.49015 59.8689C8.05251 59.5193 7.43982 59.4319 6.91465 59.5193Z" fill="url(#paint14_linear)"/>
<path fill-rule="evenodd" clip-rule="evenodd" d="M4.11377 37.7567C4.00436 38.0408 3.89496 38.3248 3.76367 38.6307C3.9934 38.6766 4.22314 38.6984 4.46554 38.7214C4.6849 38.7422 4.91463 38.764 5.16411 38.8055C6.12691 38.6307 7.0897 38.1063 7.7024 37.2323C8.31509 36.3583 8.49014 35.3969 8.40262 34.4355L20.6564 32.4254L32.035 43.8747C31.4223 44.7487 31.1597 45.7975 31.3348 46.7589C31.5098 47.7203 32.035 48.6817 32.9103 49.2935C33.7856 49.9053 34.8359 50.1675 35.7987 49.9927C36.7615 49.8179 37.7243 49.2935 38.337 48.4195C38.9497 47.5455 39.2123 46.4967 39.0372 45.5353C38.8621 44.5739 38.337 43.6125 37.4617 43.0007C36.5864 42.3889 35.5361 42.1267 34.5733 42.3015C34.2232 42.3015 33.7855 42.4763 33.4354 42.6511L21.2691 30.4151L7.7024 32.6001C7.43981 32.2505 7.17724 31.9883 6.91465 31.7261C6.65032 32.1221 6.43588 32.5678 6.23366 32.9881C6.16804 33.1245 6.10371 33.2583 6.03938 33.3867C6.30196 33.7363 6.47702 34.0859 6.56455 34.4355C6.65208 34.9599 6.56454 35.5717 6.21443 36.0087C5.86432 36.5331 5.33917 36.7953 4.814 36.8827H4.46389C4.33259 37.1886 4.22318 37.4727 4.11377 37.7567ZM33.0853 46.4093C32.9978 45.8849 33.0853 45.2731 33.4354 44.8361C33.698 44.3991 34.2232 44.1369 34.8359 43.9621C35.361 43.8747 35.9737 43.9621 36.4114 44.3117C36.9365 44.6613 37.1991 45.1857 37.2867 45.7101C37.3742 46.2345 37.2866 46.8463 36.9365 47.2833C36.5864 47.8077 36.0613 48.0699 35.5361 48.1573C35.0109 48.2447 34.3982 48.1573 33.9606 47.8077C33.4354 47.4581 33.1729 46.9337 33.0853 46.4093Z" fill="url(#paint15_linear)"/>
<path d="M12.954 22.4617L11.3786 24.5594L20.0438 23.161L26.6083 9.96358C26.0831 10.3569 25.558 10.7283 25.0328 11.0998C24.5076 11.4712 23.9825 11.8427 23.4573 12.236L18.8184 21.5004L12.954 22.4617Z" fill="url(#paint16_linear)"/>
<path fill-rule="evenodd" clip-rule="evenodd" d="M42.1007 2.62198C41.8162 2.70938 41.5317 2.79678 41.2254 2.88418L44.4639 22.6366L44.5514 23.161L48.7527 49.2061C47.965 49.4683 47.3523 49.9053 46.8271 50.6045C46.2144 51.4785 45.9518 52.5273 46.1269 53.4887C46.3019 54.4501 46.8271 55.4115 47.7024 56.0233C48.5777 56.6351 49.628 56.8973 50.5908 56.7225C51.5536 56.5477 52.5164 56.0233 53.1291 55.1493C53.7418 54.2753 54.0044 53.2265 53.8293 52.2651C53.6543 51.3037 53.1291 50.3423 52.2538 49.7305C51.7286 49.3809 51.116 49.1187 50.5033 49.0313L46.302 22.8987L46.2144 22.3744L42.9759 2.35978C42.6696 2.44718 42.3851 2.53458 42.1007 2.62198ZM51.7287 54.1879C51.3786 54.7123 50.8534 54.9745 50.3282 55.0619C49.8031 55.1493 49.1904 54.9745 48.7527 54.7123C48.2276 54.3627 47.965 53.8383 47.8774 53.3139C47.7899 52.7895 47.8775 52.1777 48.2276 51.7407C48.5777 51.2163 49.1028 50.9541 49.628 50.8667C50.1532 50.7793 50.7659 50.8667 51.2035 51.2163C51.7287 51.5659 51.9912 52.0903 52.0788 52.6147C52.1663 53.1391 52.0788 53.7509 51.7287 54.1879Z" fill="url(#paint17_linear)"/>
<path fill-rule="evenodd" clip-rule="evenodd" d="M53.3917 11.5368L51.6411 0.524404C51.7146 0.512177 51.7898 0.499949 51.8665 0.487481C52.3377 0.410833 52.8647 0.325128 53.3917 0.174784L55.1422 11.1872L56.1925 17.48L61.5317 50.3423C62.2319 50.4297 62.9322 50.6919 63.5449 51.1289C64.4201 51.7407 64.9453 52.7021 65.1203 53.6635C65.2954 54.6249 65.0328 55.6737 64.4201 56.5477C63.8074 57.4217 62.8446 57.9461 61.8818 58.1209C60.919 58.2957 59.8687 58.0335 58.9934 57.4217C58.1181 56.8099 57.593 55.8485 57.4179 54.8871C57.2429 53.9257 57.5055 52.8769 58.1182 52.0029C58.5558 51.3911 59.1685 50.9541 59.7812 50.6919L54.442 17.8296L53.3917 11.5368ZM63.2823 54.6249C63.3698 54.4501 63.3698 54.1879 63.3698 53.7509C63.2823 53.2265 62.9322 52.7021 62.4945 52.3525C62.0569 52.0029 61.4442 51.9155 60.919 52.0029C60.3939 52.0903 59.9562 52.3525 59.6061 52.7895C59.256 53.2265 59.1685 53.7509 59.256 54.2753C59.3435 54.7997 59.6936 55.3241 60.1313 55.6737C60.5689 56.0233 61.1816 56.1107 61.7068 56.0233C62.1444 56.0233 62.4945 55.8485 62.7571 55.5863L63.0197 55.3241V55.2367C63.0635 55.193 63.0853 55.1493 63.1072 55.1056C63.1291 55.0619 63.151 55.0182 63.1947 54.9745C63.2823 54.8871 63.2823 54.8871 63.2823 54.7997V54.6249Z" fill="url(#paint18_linear)"/>
<path fill-rule="evenodd" clip-rule="evenodd" d="M81.7505 101.559C80.7877 101.733 79.7374 101.471 78.8621 100.859C77.9869 100.248 77.4617 99.2862 77.2866 98.3248C77.1116 97.3634 77.3742 96.3146 77.9869 95.4406C78.5996 94.5666 79.5624 94.0422 80.5252 93.8674C81.2254 93.78 82.1007 93.8674 82.8009 94.217L88.0525 87.0503C87.6149 86.5259 87.2648 85.8267 87.1772 85.1275C87.0022 84.1661 87.2648 83.1173 87.8774 82.2433C88.4901 81.3693 89.4529 80.8449 90.4157 80.6701C91.3785 80.4953 92.4289 80.7575 93.3042 81.3693C94.1794 81.9811 94.7046 82.9425 94.8796 83.9039C95.0547 84.8653 94.7921 85.914 94.1794 86.788C93.5667 87.662 92.6039 88.1865 91.6411 88.3613C90.9409 88.4487 90.2407 88.3612 89.5405 88.099L84.2013 95.3533C84.6389 95.8777 84.9015 96.4894 84.9891 97.1012C85.1641 98.0626 84.9015 99.1114 84.2888 99.9854C83.6761 100.859 82.7133 101.384 81.7505 101.559ZM89.2341 83.5106C89.1904 83.6198 89.1466 83.7291 89.1028 83.8165C88.9278 84.1661 88.9278 84.5157 89.0153 84.6905C89.1028 85.2149 89.4529 85.7393 89.8906 86.0889C90.3282 86.4385 90.9409 86.5259 91.4661 86.4385C91.9912 86.3511 92.5164 86.0014 92.8665 85.5645C92.954 85.4771 93.0416 85.3023 93.1291 85.1275C93.2166 84.7779 93.3041 84.4283 93.2166 84.0787C93.1291 83.5543 92.779 83.0299 92.3413 82.6803C91.9037 82.3307 91.291 82.2432 90.7658 82.3307C90.2407 82.4181 89.7155 82.7677 89.3654 83.2047C89.3217 83.2921 89.2779 83.4013 89.2341 83.5106ZM79.9125 99.461C80.3501 99.8106 80.9628 99.898 81.488 99.8106C82.0131 99.7232 82.5383 99.461 82.8884 98.9366C83.2385 98.4996 83.326 97.8878 83.2385 97.3634C83.151 96.839 82.8009 96.3146 82.3632 95.965C81.9256 95.6154 81.3129 95.528 80.7877 95.6154C80.2626 95.7028 79.7374 96.0524 79.3873 96.4894C79.0372 96.9264 78.9497 97.5382 79.0372 98.0626C79.1247 98.587 79.4748 99.1114 79.9125 99.461Z" fill="url(#paint19_linear)"/>
<path fill-rule="evenodd" clip-rule="evenodd" d="M95.7549 37.0575C95.4923 36.3583 95.3173 35.6591 95.4048 34.9599C95.4923 33.9985 95.93 33.0372 96.8052 32.4254C97.6805 31.7262 98.7308 31.464 99.6936 31.5514C100.656 31.6388 101.619 32.1631 102.319 32.9497C103.02 33.8237 103.282 34.8725 103.195 35.8339C103.107 36.7953 102.582 37.7567 101.794 38.4559C100.919 39.1551 99.8687 39.4173 98.9059 39.3299C98.2057 39.2425 97.5054 38.9803 96.8928 38.5433L89.9781 44.2243C90.4157 44.9235 90.5908 45.7101 90.5033 46.4967C90.4157 47.4581 89.9781 48.4195 89.1028 49.1187C88.2276 49.8179 87.1772 50.0801 86.2144 49.9927C85.2516 49.9053 84.2888 49.4683 83.5886 48.5943C82.8884 47.7203 82.6258 46.6715 82.7133 45.7101C82.8009 44.7487 83.2385 43.7873 84.1138 43.0881C84.9891 42.3889 86.0394 42.1267 87.0022 42.2141C87.7024 42.2141 88.3151 42.4763 88.8403 42.8259L95.7549 37.0575ZM100.569 33.78C100.481 33.7145 100.394 33.6489 100.306 33.5615C99.8687 33.2993 99.3435 33.2119 98.8184 33.1245C98.2932 33.2119 97.768 33.5615 97.4179 33.9985C97.0678 34.4355 96.9803 35.0473 97.0678 35.5717C97.1553 36.0961 97.5055 36.6205 97.9431 36.9701C98.0099 37.0035 98.064 37.0241 98.1102 37.0418C98.185 37.0703 98.2391 37.0909 98.2932 37.1449C98.4683 37.2323 98.7309 37.3197 98.9934 37.3197C99.5186 37.4071 100.044 37.2323 100.481 36.8827C100.919 36.5331 101.182 36.0087 101.269 35.4843C101.357 34.9599 101.182 34.4355 100.831 33.9985C100.744 33.9111 100.656 33.8456 100.569 33.78ZM84.5514 45.7975C84.4639 46.3219 84.6389 46.9337 84.9891 47.3707C85.3392 47.8077 85.8643 48.0699 86.3895 48.1573C86.9146 48.2447 87.5274 48.0699 87.965 47.7203C88.4026 47.3707 88.6652 46.8463 88.7527 46.3219C88.8402 45.7975 88.6652 45.1857 88.3151 44.7487C87.965 44.3117 87.4398 44.0495 86.9146 43.9621C86.3895 43.8747 85.7768 44.0495 85.3392 44.3991C84.9015 44.7487 84.6389 45.2731 84.5514 45.7975Z" fill="url(#paint20_linear)"/>
<path fill-rule="evenodd" clip-rule="evenodd" d="M26.8709 53.1391C25.9956 52.5273 24.9453 52.2651 23.9825 52.4399C23.2823 52.5273 22.5821 52.7895 22.0569 53.4013L14.7046 48.1573C14.9672 47.5455 14.9672 46.8463 14.8796 46.2345C14.7046 45.2731 14.1794 44.3117 13.3042 43.6999C12.4289 43.0881 11.3785 42.8259 10.4157 43.0007C9.45295 43.1755 8.49015 43.6999 7.87746 44.5739C7.26477 45.4479 7.00219 46.4967 7.17724 47.4581C7.35229 48.4195 7.87746 49.3809 8.75273 49.9927C9.62801 50.6045 10.6783 50.8667 11.6411 50.6919C12.4289 50.6045 13.1291 50.2549 13.7418 49.6431L21.0066 54.7997C20.744 55.4115 20.6565 56.1981 20.744 56.8973C20.919 57.8587 21.4442 58.8201 22.3195 59.4319C23.1947 60.0437 24.2451 60.3059 25.2079 60.1311C26.1707 59.9563 27.1335 59.4319 27.7462 58.5579C28.3589 57.6839 28.6214 56.6351 28.4464 55.6737C28.2713 54.7123 27.7462 53.7509 26.8709 53.1391ZM23.895 54.2316C23.7856 54.2753 23.6761 54.319 23.5449 54.3627C23.2823 54.5375 23.0197 54.7997 22.8446 54.9745C22.4945 55.4115 22.407 56.0233 22.4945 56.5477C22.5821 57.0721 22.9322 57.5965 23.3698 57.9461C23.8074 58.2957 24.4201 58.3831 24.9453 58.2957C25.1203 58.2957 25.3829 58.2083 25.558 58.1209C25.9081 57.9461 26.1707 57.6839 26.3457 57.4217C26.6958 56.9847 26.7834 56.3729 26.6958 55.8485C26.6083 55.3241 26.2582 54.7997 25.8206 54.4501C25.3829 54.1005 24.7702 54.0131 24.2451 54.1005C24.1138 54.1442 24.0044 54.1879 23.895 54.2316ZM8.92779 47.1959C8.84026 46.6715 8.92778 46.0597 9.27789 45.6227C9.628 45.0983 10.0656 44.8361 10.6783 44.7487C11.2035 44.6613 11.8162 44.7487 12.2538 45.0983C12.779 45.4479 13.0416 45.9723 13.1291 46.4967C13.2166 47.0211 13.1291 47.6329 12.779 48.0699C12.4289 48.5943 11.9037 48.8565 11.3786 48.9439C10.8534 49.0313 10.2407 48.9439 9.80306 48.5943C9.2779 48.2447 9.01531 47.7203 8.92779 47.1959Z" fill="url(#paint21_linear)"/>
<path fill-rule="evenodd" clip-rule="evenodd" d="M40 62.2287C39.0372 62.4035 37.9869 62.1413 37.1116 61.5295C36.2363 60.9177 35.7112 59.9563 35.5361 59.0823C35.361 58.1209 35.6236 57.0721 36.2363 56.1981C36.849 55.3241 37.8118 54.7997 38.7746 54.6249C39.7374 54.4501 40.7877 54.7123 41.663 55.3241C42.5383 55.9359 43.0634 56.8973 43.2385 57.8587C43.326 58.2957 43.326 58.7327 43.2385 59.1697L52.6914 63.2775L119.65 52.5273C119.695 52.7989 119.717 53.0939 119.74 53.4002C119.761 53.6854 119.783 53.9803 119.825 54.2753L52.4289 65.1129L42.4508 60.7429C41.8381 61.6169 40.9628 62.0539 40 62.2287ZM39.7374 60.3933C39.2122 60.4807 38.5996 60.3933 38.1619 60.0437C37.7243 59.6941 37.3742 59.2571 37.2867 58.6453C37.1991 58.1209 37.2867 57.5091 37.6368 57.0721C37.9869 56.5477 38.512 56.2855 39.0372 56.1981C39.5624 56.1107 40.175 56.1981 40.6127 56.5477C41.1378 56.8973 41.4004 57.4217 41.488 57.9461C41.5755 58.4705 41.488 59.0823 41.1379 59.5193C40.7877 60.0437 40.2626 60.3059 39.7374 60.3933Z" fill="url(#paint22_linear)"/>
<path fill-rule="evenodd" clip-rule="evenodd" d="M83.151 72.5419C83.6761 71.9301 83.8512 71.2309 83.9387 70.5317L119.912 64.6759C119.912 64.37 119.934 64.0641 119.956 63.7582C119.978 63.4523 120 63.1464 120 62.8405L83.5886 68.7837C83.326 68.1719 82.8884 67.5601 82.2757 67.1231C81.4004 66.5113 80.3501 66.2491 79.3873 66.4239C78.4245 66.5987 77.4617 67.1231 76.849 67.9971C76.2363 68.8711 75.9737 69.9199 76.1488 70.8813C76.3238 71.8427 76.849 72.8041 77.7243 73.4159C78.5995 74.0277 79.6499 74.2899 80.6127 74.1151C81.5755 73.9403 82.5383 73.4159 83.151 72.5419ZM81.7505 71.4057C81.4004 71.9301 80.8753 72.1923 80.3501 72.2797C79.8249 72.3671 79.2122 72.2797 78.7746 71.9301C78.2495 71.5805 77.9869 71.0561 77.8993 70.5317C77.8118 70.0073 77.8993 69.3955 78.2494 68.9585C78.5996 68.4341 79.1247 68.1719 79.6499 68.0845C80.175 67.9971 80.7877 68.0845 81.2254 68.4341C81.7505 68.7837 82.0131 69.3081 82.1006 69.8325C82.1882 70.3569 82.1006 70.9687 81.7505 71.4057Z" fill="url(#paint23_linear)"/>
<defs>
<linearGradient id="paint0_linear" x1="121.99" y1="34.4665" x2="22.2903" y2="79.2657" gradientUnits="userSpaceOnUse">
<stop stop-color="#1F2D75"/>
<stop offset="0.19" stop-color="#183782"/>
<stop offset="0.6" stop-color="#1672B9"/>
<stop offset="1" stop-color="#2299D6"/>
</linearGradient>
<linearGradient id="paint1_linear" x1="114.188" y1="10.0968" x2="107.079" y2="13.2421" gradientUnits="userSpaceOnUse">
<stop stop-color="#1F2D75"/>
<stop offset="0.19" stop-color="#183782"/>
<stop offset="0.6" stop-color="#1672B9"/>
<stop offset="1" stop-color="#2299D6"/>
</linearGradient>
<linearGradient id="paint2_linear" x1="111.417" y1="43.5683" x2="13.3886" y2="74.6972" gradientUnits="userSpaceOnUse">
<stop stop-color="#1E2F78"/>
<stop offset="0.08" stop-color="#1D307A"/>
<stop offset="0.21" stop-color="#163883"/>
<stop offset="0.69" stop-color="#4FB6E8"/>
<stop offset="1" stop-color="#5BC5F2"/>
</linearGradient>
<linearGradient id="paint3_linear" x1="111.417" y1="43.5683" x2="13.3886" y2="74.6972" gradientUnits="userSpaceOnUse">
<stop stop-color="#1E2F78"/>
<stop offset="0.08" stop-color="#1D307A"/>
<stop offset="0.21" stop-color="#163883"/>
<stop offset="0.69" stop-color="#4FB6E8"/>
<stop offset="1" stop-color="#5BC5F2"/>
</linearGradient>
<linearGradient id="paint4_linear" x1="111.417" y1="43.5683" x2="13.3886" y2="74.6972" gradientUnits="userSpaceOnUse">
<stop stop-color="#1E2F78"/>
<stop offset="0.08" stop-color="#1D307A"/>
<stop offset="0.21" stop-color="#163883"/>
<stop offset="0.69" stop-color="#4FB6E8"/>
<stop offset="1" stop-color="#5BC5F2"/>
</linearGradient>
<linearGradient id="paint5_linear" x1="111.417" y1="43.5683" x2="13.3886" y2="74.6972" gradientUnits="userSpaceOnUse">
<stop stop-color="#1E2F78"/>
<stop offset="0.08" stop-color="#1D307A"/>
<stop offset="0.21" stop-color="#163883"/>
<stop offset="0.69" stop-color="#4FB6E8"/>
<stop offset="1" stop-color="#5BC5F2"/>
</linearGradient>
<linearGradient id="paint6_linear" x1="111.417" y1="43.5683" x2="13.3886" y2="74.6972" gradientUnits="userSpaceOnUse">
<stop stop-color="#1E2F78"/>
<stop offset="0.08" stop-color="#1D307A"/>
<stop offset="0.21" stop-color="#163883"/>
<stop offset="0.69" stop-color="#4FB6E8"/>
<stop offset="1" stop-color="#5BC5F2"/>
</linearGradient>
<linearGradient id="paint7_linear" x1="111.417" y1="43.5683" x2="13.3886" y2="74.6972" gradientUnits="userSpaceOnUse">
<stop stop-color="#1E2F78"/>
<stop offset="0.08" stop-color="#1D307A"/>
<stop offset="0.21" stop-color="#163883"/>
<stop offset="0.69" stop-color="#4FB6E8"/>
<stop offset="1" stop-color="#5BC5F2"/>
</linearGradient>
<linearGradient id="paint8_linear" x1="111.417" y1="43.5683" x2="13.3886" y2="74.6972" gradientUnits="userSpaceOnUse">
<stop stop-color="#1E2F78"/>
<stop offset="0.08" stop-color="#1D307A"/>
<stop offset="0.21" stop-color="#163883"/>
<stop offset="0.69" stop-color="#4FB6E8"/>
<stop offset="1" stop-color="#5BC5F2"/>
</linearGradient>
<linearGradient id="paint9_linear" x1="111.417" y1="43.5683" x2="13.3886" y2="74.6972" gradientUnits="userSpaceOnUse">
<stop stop-color="#1E2F78"/>
<stop offset="0.08" stop-color="#1D307A"/>
<stop offset="0.21" stop-color="#163883"/>
<stop offset="0.69" stop-color="#4FB6E8"/>
<stop offset="1" stop-color="#5BC5F2"/>
</linearGradient>
<linearGradient id="paint10_linear" x1="111.417" y1="43.5683" x2="13.3886" y2="74.6972" gradientUnits="userSpaceOnUse">
<stop stop-color="#1E2F78"/>
<stop offset="0.08" stop-color="#1D307A"/>
<stop offset="0.21" stop-color="#163883"/>
<stop offset="0.69" stop-color="#4FB6E8"/>
<stop offset="1" stop-color="#5BC5F2"/>
</linearGradient>
<linearGradient id="paint11_linear" x1="111.417" y1="43.5683" x2="13.3886" y2="74.6972" gradientUnits="userSpaceOnUse">
<stop stop-color="#1E2F78"/>
<stop offset="0.08" stop-color="#1D307A"/>
<stop offset="0.21" stop-color="#163883"/>
<stop offset="0.69" stop-color="#4FB6E8"/>
<stop offset="1" stop-color="#5BC5F2"/>
</linearGradient>
<linearGradient id="paint12_linear" x1="111.417" y1="43.5683" x2="13.3886" y2="74.6972" gradientUnits="userSpaceOnUse">
<stop stop-color="#1E2F78"/>
<stop offset="0.08" stop-color="#1D307A"/>
<stop offset="0.21" stop-color="#163883"/>
<stop offset="0.69" stop-color="#4FB6E8"/>
<stop offset="1" stop-color="#5BC5F2"/>
</linearGradient>
<linearGradient id="paint13_linear" x1="111.417" y1="43.5683" x2="13.3886" y2="74.6972" gradientUnits="userSpaceOnUse">
<stop stop-color="#1E2F78"/>
<stop offset="0.08" stop-color="#1D307A"/>
<stop offset="0.21" stop-color="#163883"/>
<stop offset="0.69" stop-color="#4FB6E8"/>
<stop offset="1" stop-color="#5BC5F2"/>
</linearGradient>
<linearGradient id="paint14_linear" x1="111.417" y1="43.5683" x2="13.3886" y2="74.6972" gradientUnits="userSpaceOnUse">
<stop stop-color="#1E2F78"/>
<stop offset="0.08" stop-color="#1D307A"/>
<stop offset="0.21" stop-color="#163883"/>
<stop offset="0.69" stop-color="#4FB6E8"/>
<stop offset="1" stop-color="#5BC5F2"/>
</linearGradient>
<linearGradient id="paint15_linear" x1="111.417" y1="43.5683" x2="13.3886" y2="74.6972" gradientUnits="userSpaceOnUse">
<stop stop-color="#1E2F78"/>
<stop offset="0.08" stop-color="#1D307A"/>
<stop offset="0.21" stop-color="#163883"/>
<stop offset="0.69" stop-color="#4FB6E8"/>
<stop offset="1" stop-color="#5BC5F2"/>
</linearGradient>
<linearGradient id="paint16_linear" x1="111.417" y1="43.5683" x2="13.3886" y2="74.6972" gradientUnits="userSpaceOnUse">
<stop stop-color="#1E2F78"/>
<stop offset="0.08" stop-color="#1D307A"/>
<stop offset="0.21" stop-color="#163883"/>
<stop offset="0.69" stop-color="#4FB6E8"/>
<stop offset="1" stop-color="#5BC5F2"/>
</linearGradient>
<linearGradient id="paint17_linear" x1="111.417" y1="43.5683" x2="13.3886" y2="74.6972" gradientUnits="userSpaceOnUse">
<stop stop-color="#1E2F78"/>
<stop offset="0.08" stop-color="#1D307A"/>
<stop offset="0.21" stop-color="#163883"/>
<stop offset="0.69" stop-color="#4FB6E8"/>
<stop offset="1" stop-color="#5BC5F2"/>
</linearGradient>
<linearGradient id="paint18_linear" x1="111.417" y1="43.5683" x2="13.3886" y2="74.6972" gradientUnits="userSpaceOnUse">
<stop stop-color="#1E2F78"/>
<stop offset="0.08" stop-color="#1D307A"/>
<stop offset="0.21" stop-color="#163883"/>
<stop offset="0.69" stop-color="#4FB6E8"/>
<stop offset="1" stop-color="#5BC5F2"/>
</linearGradient>
<linearGradient id="paint19_linear" x1="111.417" y1="43.5683" x2="13.3886" y2="74.6972" gradientUnits="userSpaceOnUse">
<stop stop-color="#1E2F78"/>
<stop offset="0.08" stop-color="#1D307A"/>
<stop offset="0.21" stop-color="#163883"/>
<stop offset="0.69" stop-color="#4FB6E8"/>
<stop offset="1" stop-color="#5BC5F2"/>
</linearGradient>
<linearGradient id="paint20_linear" x1="111.417" y1="43.5683" x2="13.3886" y2="74.6972" gradientUnits="userSpaceOnUse">
<stop stop-color="#1E2F78"/>
<stop offset="0.08" stop-color="#1D307A"/>
<stop offset="0.21" stop-color="#163883"/>
<stop offset="0.69" stop-color="#4FB6E8"/>
<stop offset="1" stop-color="#5BC5F2"/>
</linearGradient>
<linearGradient id="paint21_linear" x1="111.417" y1="43.5683" x2="13.3886" y2="74.6972" gradientUnits="userSpaceOnUse">
<stop stop-color="#1E2F78"/>
<stop offset="0.08" stop-color="#1D307A"/>
<stop offset="0.21" stop-color="#163883"/>
<stop offset="0.69" stop-color="#4FB6E8"/>
<stop offset="1" stop-color="#5BC5F2"/>
</linearGradient>
<linearGradient id="paint22_linear" x1="111.417" y1="43.5683" x2="13.3886" y2="74.6972" gradientUnits="userSpaceOnUse">
<stop stop-color="#1E2F78"/>
<stop offset="0.08" stop-color="#1D307A"/>
<stop offset="0.21" stop-color="#163883"/>
<stop offset="0.69" stop-color="#4FB6E8"/>
<stop offset="1" stop-color="#5BC5F2"/>
</linearGradient>
<linearGradient id="paint23_linear" x1="111.417" y1="43.5683" x2="13.3886" y2="74.6972" gradientUnits="userSpaceOnUse">
<stop stop-color="#1E2F78"/>
<stop offset="0.08" stop-color="#1D307A"/>
<stop offset="0.21" stop-color="#163883"/>
<stop offset="0.69" stop-color="#4FB6E8"/>
<stop offset="1" stop-color="#5BC5F2"/>
</linearGradient>
</defs>
</svg>
