<svg width="48" height="48" viewBox="0 0 48 48" fill="none" xmlns="http://www.w3.org/2000/svg">
<path d="M48 0H0V48H48V0Z" fill="white" fill-opacity="0.01"/>
<path d="M24 4L29.2533 7.83204L35.7557 7.81966L37.7533 14.0077L43.0211 17.8197L41 24L43.0211 30.1803L37.7533 33.9923L35.7557 40.1803L29.2533 40.168L24 44L18.7467 40.168L12.2443 40.1803L10.2467 33.9923L4.97888 30.1803L7.00001 24L4.97888 17.8197L10.2467 14.0077L12.2443 7.81966L18.7467 7.83204L24 4Z" fill="url(#paint0_linear)" stroke="#118AE0" stroke-width="2" stroke-linecap="round" stroke-linejoin="round"/>
<path d="M17 24L22 29L32 19" stroke="#118AE0" stroke-width="2" stroke-linecap="round" stroke-linejoin="round"/>
<defs>
<linearGradient id="paint0_linear" x1="3.62167" y1="26.619" x2="42.9854" y2="26.791" gradientUnits="userSpaceOnUse">
<stop stop-color="#4FB6E8" stop-opacity="0.29"/>
<stop offset="1" stop-color="#118AE0" stop-opacity="0"/>
</linearGradient>
</defs>
</svg>
