<svg width="48" height="48" viewBox="0 0 48 48" fill="none" xmlns="http://www.w3.org/2000/svg">
<path d="M6 8.25564L24.0086 3L42 8.25564V19.0337C42 30.3622 34.7502 40.4194 24.0026 44.0005C13.2521 40.4195 6 30.36 6 19.0287V8.25564Z" fill="url(#paint0_linear)"/>
<path fill-rule="evenodd" clip-rule="evenodd" d="M24.289 2.04012C24.106 1.98665 23.9115 1.98663 23.7285 2.04004L5.71985 7.29569C5.29326 7.42018 5 7.81126 5 8.25564V19.0287C5 30.7905 12.5276 41.2322 23.6866 44.9493C23.8918 45.0176 24.1136 45.0176 24.3187 44.9492C35.4747 41.2321 43 30.7927 43 19.0337V8.25564C43 7.81135 42.7069 7.42034 42.2804 7.29576L24.289 2.04012ZM7 19.0287V9.00552L24.0085 4.04175L41 9.00532V19.0337C41 29.8203 34.1676 39.4088 24.0026 42.9442C13.8347 39.4088 7 29.8181 7 19.0287ZM18 21.6C18 20.2187 19.2055 19 20.8182 19C21.8232 19 22.6873 19.4829 23.1827 20.1856C23.3701 20.4513 23.6749 20.6093 24 20.6093C24.3251 20.6093 24.6299 20.4513 24.8172 20.1856C25.3127 19.4829 26.1767 19 27.1818 19C28.7945 19 30 20.2187 30 21.6C30 22.5694 29.5179 23.5529 28.7777 24.508C28.1314 25.342 27.3713 26.053 26.7471 26.6367L26.7471 26.6367L26.7468 26.637C26.6603 26.7179 26.5764 26.7964 26.4958 26.8724C25.8227 27.507 24.9932 28.1537 24 28.8104C23.0068 28.1537 22.1773 27.507 21.5042 26.8724C21.4242 26.797 21.3409 26.7191 21.2551 26.6388L21.2529 26.6367C20.6287 26.053 19.8686 25.342 19.2223 24.508C18.4821 23.5529 18 22.5694 18 21.6ZM20.8182 17C18.2135 17 16 19.0049 16 21.6C16 23.2188 16.7907 24.6353 17.6414 25.7331C18.3937 26.7039 19.278 27.5295 19.8954 28.1058L19.8954 28.1059L19.8954 28.1059C19.9797 28.1845 20.0589 28.2585 20.1322 28.3276L20.1322 28.3276C21.0392 29.1828 22.155 30.0214 23.4678 30.8466C23.7931 31.0511 24.2069 31.0511 24.5322 30.8466C25.845 30.0214 26.9607 29.1828 27.8678 28.3276L27.8678 28.3276C27.9407 28.2589 28.0195 28.1853 28.1032 28.1071L28.1046 28.1059C28.722 27.5295 29.6063 26.7039 30.3586 25.7331C31.2093 24.6353 32 23.2188 32 21.6C32 19.0049 29.7865 17 27.1818 17C25.9703 17 24.8535 17.4283 24 18.1451C23.1465 17.4283 22.0296 17 20.8182 17Z" fill="#118AE0"/>
<defs>
<linearGradient id="paint0_linear" x1="4.71564" y1="26.1848" x2="41.9663" y2="26.335" gradientUnits="userSpaceOnUse">
<stop stop-color="#4FB6E8" stop-opacity="0.29"/>
<stop offset="1" stop-color="#118AE0" stop-opacity="0"/>
</linearGradient>
</defs>
</svg>
