<svg width="43" height="48" viewBox="0 0 43 48" fill="none" xmlns="http://www.w3.org/2000/svg">
<path fill-rule="evenodd" clip-rule="evenodd" d="M20.4642 9L1.77778 17.4L11.622 21.8252H10.2717V34.2666C10.2717 34.2666 14.5473 38.9999 20.4643 38.9999C26.3813 38.9999 30.6569 34.2666 30.6569 34.2666V21.8252H29.3064L39.1506 17.4L20.4642 9Z" fill="url(#paint0_linear)"/>
<path d="M1.77778 17.4L20.4642 9L39.1506 17.4L20.4642 25.8L1.77778 17.4Z" fill="url(#paint1_linear)"/>
<path fill-rule="evenodd" clip-rule="evenodd" d="M20.0542 8.08792C20.3149 7.97069 20.6134 7.97069 20.8742 8.08792L39.5606 16.4879C39.9196 16.6493 40.1506 17.0063 40.1506 17.4C40.1506 17.4183 40.1501 17.4365 40.1491 17.4545C40.1501 17.4729 40.1506 17.4914 40.1506 17.51V26.7332C40.1506 27.2855 39.7029 27.7332 39.1506 27.7332C38.5983 27.7332 38.1506 27.2855 38.1506 26.7332V18.9459L31.6569 21.865V34.2666C31.6569 34.5143 31.565 34.7531 31.399 34.9369L30.6569 34.2666C31.399 34.9369 31.3988 34.9372 31.3985 34.9375L31.3979 34.9381L31.3964 34.9398L31.3922 34.9444L31.3792 34.9586C31.3747 34.9635 31.3695 34.9691 31.3636 34.9754C31.3552 34.9844 31.3455 34.9948 31.3343 35.0066C31.2962 35.0469 31.2417 35.1037 31.1714 35.1745C31.0309 35.316 30.8272 35.514 30.5652 35.7496C30.0421 36.2202 29.2824 36.845 28.327 37.47C26.4267 38.7134 23.6876 39.9999 20.4643 39.9999C17.241 39.9999 14.5019 38.7134 12.6016 37.47C11.6463 36.845 10.8865 36.2202 10.3634 35.7496C10.1015 35.514 9.89771 35.316 9.75725 35.1745C9.68699 35.1037 9.63247 35.0469 9.59435 35.0066C9.57528 34.9864 9.5603 34.9703 9.54949 34.9586L9.53641 34.9444L9.53223 34.9398L9.53073 34.9381L9.53013 34.9375C9.52987 34.9372 9.52963 34.9369 10.2717 34.2666L9.52963 34.9369C9.36361 34.7531 9.2717 34.5143 9.2717 34.2666V21.8651L1.36777 18.3121C1.00873 18.1507 0.777779 17.7937 0.777779 17.4C0.777779 17.0063 1.00873 16.6493 1.36777 16.4879L20.0542 8.08792ZM11.2717 22.7641V33.86C11.3818 33.9681 11.5256 34.105 11.701 34.2627C12.1645 34.6797 12.8435 35.2382 13.6967 35.7965C15.4134 36.9197 17.7706 37.9999 20.4643 37.9999C23.158 37.9999 25.5152 36.9197 27.232 35.7965C28.0852 35.2382 28.7641 34.6797 29.2276 34.2627C29.403 34.105 29.5469 33.9681 29.6569 33.86V22.764L20.8742 26.7121C20.6134 26.8293 20.3149 26.8293 20.0542 26.7121L11.2717 22.7641ZM4.21678 17.4L20.4642 24.7036L36.7116 17.4L20.4642 10.0964L4.21678 17.4Z" fill="#118AE0"/>
<defs>
<linearGradient id="paint0_linear" x1="0.444445" y1="18.5" x2="39.1122" y2="18.8951" gradientUnits="userSpaceOnUse">
<stop stop-color="#4FB6E8" stop-opacity="0.5"/>
<stop offset="1" stop-color="#118AE0" stop-opacity="0"/>
</linearGradient>
<linearGradient id="paint1_linear" x1="0.444445" y1="18.5" x2="39.1122" y2="18.8951" gradientUnits="userSpaceOnUse">
<stop stop-color="#4FB6E8" stop-opacity="0.29"/>
<stop offset="1" stop-color="#118AE0" stop-opacity="0"/>
</linearGradient>
</defs>
</svg>
