<svg width="18" height="18" viewBox="0 0 18 18" fill="none" xmlns="http://www.w3.org/2000/svg">
<path d="M17.6262 2.25385C18.0167 1.86333 18.0167 1.23017 17.6262 0.839641L17.1604 0.373855C16.7699 -0.0166696 16.1367 -0.0166695 15.7462 0.373855L8.99996 7.12008L2.25373 0.373854C1.86321 -0.0166702 1.23004 -0.0166695 0.839519 0.373855L0.373733 0.839641C-0.0167917 1.23017 -0.0167915 1.86333 0.373733 2.25385L7.11996 9.00008L0.373732 15.7463C-0.0167923 16.1368 -0.0167916 16.77 0.373733 17.1605L0.839519 17.6263C1.23004 18.0168 1.86321 18.0168 2.25373 17.6263L8.99996 10.8801L15.7462 17.6263C16.1367 18.0168 16.7699 18.0168 17.1604 17.6263L17.6262 17.1605C18.0167 16.77 18.0167 16.1368 17.6262 15.7463L10.88 9.00008L17.6262 2.25385Z" fill="black"/>
</svg>
