<svg width="48" height="48" viewBox="0 0 48 48" fill="none" xmlns="http://www.w3.org/2000/svg">
<path fill-rule="evenodd" clip-rule="evenodd" d="M10.6364 5H37.3636L45 18.3L24 43L3 18.3L10.6364 5Z" fill="url(#paint0_linear)"/>
<path fill-rule="evenodd" clip-rule="evenodd" d="M10.6595 3.99978C10.542 3.99703 10.422 4.01511 10.3045 4.05642C10.0637 4.14109 9.87572 4.30857 9.76124 4.51565L2.14078 17.7879C2.05946 17.9241 2.00961 18.0813 2.00126 18.2494C2.00006 18.2732 1.99972 18.2971 2.00023 18.321C2.00526 18.5633 2.09648 18.7844 2.24448 18.955L23.2267 43.6341C23.3968 43.8414 23.6463 43.975 23.9209 43.9967C23.947 43.9987 23.9734 43.9998 23.9999 43.9998H24C24.0052 43.9998 24.0105 43.9997 24.0157 43.9997C24.0194 43.9996 24.0232 43.9995 24.0269 43.9994C24.0352 43.9992 24.0436 43.9989 24.0518 43.9984C24.1865 43.9915 24.3156 43.9576 24.4329 43.9012C24.5577 43.8413 24.6701 43.7555 24.7619 43.6475L45.7556 18.9549C45.9031 18.7849 45.9942 18.5645 45.9997 18.323L46 18.2998C46 18.2867 45.9998 18.2736 45.9992 18.2605C45.999 18.2538 45.9987 18.2471 45.9983 18.2404C45.9886 18.0757 45.9391 17.9217 45.8592 17.7879L38.2309 4.50186C38.2076 4.46136 38.1818 4.42289 38.1536 4.3866C38.0563 4.26102 37.9282 4.15736 37.7754 4.08851C37.7236 4.06505 37.6696 4.04598 37.614 4.03161C37.5228 4.0079 37.4308 3.99766 37.3402 3.99978H24.0001H10.6595ZM22.1637 5.99978H12.048L15.6139 16.1398L22.1637 5.99978ZM17.2456 17.2998H30.7546L24.0001 6.84281L17.2456 17.2998ZM32.386 16.1393L25.8365 5.99978H35.9518L32.386 16.1393ZM21.266 38.2403L5.16282 19.2998H14.6052L21.266 38.2403ZM23.9999 39.9855L16.7252 19.2998H31.2745L23.9999 39.9855ZM42.8372 19.2998H33.3946L26.7335 38.2408L42.8372 19.2998ZM43.2728 17.2998H34.0979L37.5829 7.39007L43.2728 17.2998ZM13.9018 17.2998H4.72725L10.4169 7.39035L13.9018 17.2998Z" fill="#118AE0"/>
<defs>
<linearGradient id="paint0_linear" x1="1.50158" y1="26.4881" x2="44.9603" y2="26.7087" gradientUnits="userSpaceOnUse">
<stop stop-color="#4FB6E8" stop-opacity="0.29"/>
<stop offset="1" stop-color="#118AE0" stop-opacity="0"/>
</linearGradient>
</defs>
</svg>
