<svg width="1440" height="565" viewBox="0 0 1440 565" fill="none" xmlns="http://www.w3.org/2000/svg">
	<path fill-rule="evenodd" clip-rule="evenodd" d="M672.008 0.099596L644.331 549.039L642.334 548.939L670.011 0L672.008 0.099596ZM571.929 549.039L626.511 0.616603L624.521 0.420705L569.939 548.843L571.929 549.039ZM581.06 1.15971L500.532 549.039L498.553 548.751L579.08 0.872033L581.06 1.15971ZM433.158 544.039L534.722 2.03868L532.756 1.67426L431.191 543.674L433.158 544.039ZM-0.250867 125.039L83.213 3.0387L81.5565 1.918L-1.90738 123.918L-0.250867 125.039ZM-0.942711 59.0614L32.6198 5.45478L30.9194 4.40195L-2.64316 58.0086L-0.942711 59.0614ZM125.241 2.97691L-1.25646 208.039L-2.96384 206.997L123.534 1.93535L125.241 2.97691ZM-1.25646 307.039L171.498 3.03867L169.755 2.05884L-3 306.059L-1.25646 307.039ZM215.951 5.0387L-0.250867 421.039L-2.02968 420.124L214.172 4.12447L215.951 5.0387ZM20.8665 514.039L264.219 5.03869L262.411 4.18382L19.0584 513.184L20.8665 514.039ZM306.454 5.03872L82.2074 525.039L80.3677 524.254L304.614 4.25416L306.454 5.03872ZM149.582 537.039L351.705 3.03874L349.832 2.33762L147.709 536.338L149.582 537.039ZM397.962 3.03871L220.979 537.039L219.078 536.416L396.062 2.4158L397.962 3.03871ZM291.37 541.039L445.225 3.03868L443.3 2.49442L289.445 540.495L291.37 541.039ZM489.471 3.03873L358.744 549.039L356.798 548.578L487.525 2.57793L489.471 3.03873ZM716.734 554.039V0.0387265L714.734 0.0387265V554.039H716.734Z" fill="url(#paint0_linear)" />
	<path fill-rule="evenodd" clip-rule="evenodd" d="M787.639 549.038L759.77 0.0989106L761.768 0L789.637 548.939L787.639 549.038ZM805.583 0.615863L860.544 549.038L862.535 548.843L807.574 0.421303L805.583 0.615863ZM932.437 549.038L851.351 1.159L853.33 0.87327L934.417 548.752L932.437 549.038ZM898.01 2.03803L1000.28 544.038L1002.25 543.676L899.977 1.67604L898.01 2.03803ZM1352.66 3.03806L1436.7 125.038L1438.36 123.923L1354.32 1.92268L1352.66 3.03806ZM1403.6 5.45414L1437.4 59.0608L1439.1 58.0132L1405.3 4.40657L1403.6 5.45414ZM1437.71 208.038L1310.34 2.97628L1312.05 1.93997L1439.42 207.002L1437.71 208.038ZM1263.76 3.03806L1437.71 307.038L1439.46 306.063L1265.5 2.06339L1263.76 3.03806ZM1436.7 421.038L1219 5.03803L1220.78 4.1288L1438.48 420.129L1436.7 421.038ZM1170.39 5.03799L1415.44 514.038L1417.25 513.188L1172.2 4.18795L1170.39 5.03799ZM1353.67 525.038L1127.86 5.03798L1129.71 4.25801L1355.51 524.258L1353.67 525.038ZM1082.3 3.03799L1285.83 537.038L1287.7 536.341L1084.17 2.34112L1082.3 3.03799ZM1213.93 537.038L1035.72 3.03792L1037.62 2.4189L1215.83 536.419L1213.93 537.038ZM988.129 3.03806L1143.05 541.038L1144.98 540.497L990.054 2.49727L988.129 3.03806ZM1075.21 549.038L943.576 3.038L945.522 2.58021L1077.16 548.58L1075.21 549.038Z" fill="url(#paint1_linear)" />
	<defs>
		<linearGradient id="paint0_linear" x1="356.867" y1="0" x2="356.867" y2="554.039" gradientUnits="userSpaceOnUse">
			<stop stop-color="#118AE0" stop-opacity="0.2" />
			<stop offset="1" stop-color="#118AE0" stop-opacity="0" />
		</linearGradient>
		<linearGradient id="paint1_linear" x1="1099.61" y1="0" x2="1099.61" y2="549.038" gradientUnits="userSpaceOnUse">
			<stop stop-color="#118AE0" stop-opacity="0.2" />
			<stop offset="1" stop-color="#118AE0" stop-opacity="0" />
		</linearGradient>
	</defs>
</svg>
