<svg width="148" height="120" viewBox="0 0 148 120" fill="none" xmlns="http://www.w3.org/2000/svg">
<path fill-rule="evenodd" clip-rule="evenodd" d="M61.5692 0C79.7386 0 96.0467 7.85456 107.214 20.2473C107.48 20.5964 107.746 20.8582 108.101 21.2073C110.139 23.2145 112.266 23.6509 115.191 23.3018C117.23 23.04 119.179 22.2545 120.952 20.9455C122.282 19.8982 123.256 18.5891 123.965 17.1927C125.827 13.3527 124.143 10.56 126.536 6.45818C127.245 5.32363 128.131 4.27636 129.195 3.40363C131.588 1.48363 134.601 0.698187 137.526 0.960005C140.362 1.22182 143.198 2.61817 145.148 5.06181C147.098 7.41817 147.896 10.3855 147.63 13.2655C147.364 16.0582 145.946 18.8509 143.464 20.7709C142.135 21.9054 140.539 22.6036 138.944 22.9527C134.069 24.0873 132.12 21.7309 128.131 21.5564C126.802 21.4691 125.472 21.7309 124.143 22.08C117.052 24.4364 115.102 30.3709 118.027 37.44C120.863 44.4218 122.459 52.0145 122.459 60.0436C122.459 93.2073 95.1604 120 61.5692 120C27.9781 120 0.679688 93.12 0.679688 60.0436C0.679687 26.88 27.9781 0 61.5692 0Z" fill="url(#paint0_linear)"/>
<path fill-rule="evenodd" clip-rule="evenodd" d="M111.268 16.687C114.018 16.687 116.268 14.437 116.268 11.687C116.268 8.93701 114.018 6.68701 111.268 6.68701C108.518 6.68701 106.268 8.93701 106.268 11.687C106.351 14.437 108.601 16.687 111.268 16.687Z" fill="url(#paint1_linear)"/>
<path fill-rule="evenodd" clip-rule="evenodd" d="M63.8307 0.0437026C63.5243 0.0218513 63.218 0 62.9116 0L64.6622 10.5754L66.0626 19.228L69.9138 43.3503C69.3011 43.6125 68.6884 44.0495 68.2508 44.6613C67.6381 45.5353 67.3755 46.5841 67.5506 47.5455C67.7256 48.5069 68.2508 49.4683 69.1261 50.0801C70.0013 50.6919 71.0517 50.9541 72.0145 50.7793C72.9773 50.6045 73.9401 50.0801 74.5528 49.2061C75.1655 48.3321 75.428 47.2833 75.253 46.3219C75.0779 45.3605 74.5528 44.3991 73.6775 43.7873C73.0648 43.3503 72.3646 43.1755 71.6644 43.0881L67.8131 18.9658L64.7497 0.0874052C64.4433 0.0874052 64.137 0.0655539 63.8307 0.0437026ZM69.5614 45.4055C69.2113 45.8425 69.1237 46.4543 69.2113 46.9787C69.2988 47.5031 69.5614 48.0275 70.0865 48.3771C70.5242 48.7267 71.1369 48.8141 71.662 48.7267C72.1872 48.6393 72.7123 48.3771 73.0625 47.8527C73.4126 47.4157 73.5001 46.8039 73.4126 46.2795C73.3251 45.7551 73.0625 45.2307 72.5373 44.8811C72.0997 44.5315 71.487 44.4441 70.9618 44.5315C70.3491 44.7063 69.8239 44.9685 69.5614 45.4055Z" fill="url(#paint2_linear)"/>
<path fill-rule="evenodd" clip-rule="evenodd" d="M79.5418 10.7502L92.0582 8.73999C92.4109 8.97474 92.7635 9.19198 93.1005 9.39955C93.5162 9.65565 93.908 9.89702 94.2464 10.1384L79.8044 12.4982C79.8044 13.1974 79.5418 13.8966 79.1042 14.5084C78.4915 15.3824 77.5287 15.9068 76.5659 16.0816C75.6031 16.2564 74.5528 15.9942 73.6775 15.3824C72.8022 14.7706 72.2771 13.8092 72.102 12.8478C71.9269 11.8864 72.1895 10.8376 72.8022 9.96358C73.4149 9.08958 74.3777 8.56519 75.3405 8.39039C76.3033 8.21559 77.3536 8.47778 78.2289 9.08958C78.8416 9.52658 79.2793 10.051 79.5418 10.7502ZM74.2027 11.0124C74.5528 10.488 75.0779 10.2258 75.6031 10.1384C76.2158 10.051 76.7409 10.2258 77.1786 10.488C77.7037 10.8376 77.9663 11.362 78.0539 11.8864C78.1414 12.4108 78.0539 13.0226 77.7038 13.4596C77.3536 13.984 76.8285 14.2462 76.3033 14.3336C75.7781 14.421 75.1655 14.3336 74.7278 13.984C74.2027 13.6344 73.9401 13.11 73.8526 12.5856C73.765 12.0612 73.8525 11.4494 74.2027 11.0124Z" fill="url(#paint3_linear)"/>
<path fill-rule="evenodd" clip-rule="evenodd" d="M81.3799 22.0247L103.962 18.354L105.537 19.9272L81.73 23.7727C81.6425 24.4719 81.3799 25.1712 80.9422 25.783C80.3296 26.657 79.3668 27.1813 78.404 27.3561C77.4412 27.5309 76.3908 27.2688 75.5156 26.657C74.6403 26.0452 74.1151 25.0838 73.9401 24.1224C73.765 23.161 74.0276 22.1122 74.6403 21.2382C75.253 20.3642 76.2158 19.8398 77.1786 19.665C78.1414 19.4902 79.1917 19.7524 80.067 20.3642C80.6797 20.8012 81.1173 21.413 81.3799 22.0247ZM76.5659 25.1712C77.0035 25.5208 77.6162 25.6081 78.1414 25.5207C78.6665 25.4333 79.1917 25.1711 79.5418 24.6467C79.8919 24.2097 79.9795 23.598 79.8919 23.0736C79.8044 22.5492 79.4543 22.0248 79.0167 21.6752C78.579 21.3256 77.9663 21.2382 77.4412 21.3256C76.916 21.413 76.3908 21.7626 76.0407 22.1996C75.6906 22.6366 75.6031 23.2483 75.6906 23.7727C75.7781 24.2971 76.1282 24.8216 76.5659 25.1712Z" fill="url(#paint4_linear)"/>
<path fill-rule="evenodd" clip-rule="evenodd" d="M94.509 109.687C95.6468 108.9 96.6971 108.114 97.7474 107.327L82.9554 109.774C82.6928 109.162 82.2552 108.551 81.6425 108.114C80.7672 107.502 79.7169 107.24 78.7541 107.414C77.7913 107.589 76.8285 108.114 76.2158 108.988C75.6031 109.862 75.3405 110.91 75.5156 111.872C75.6906 112.833 76.2158 113.795 77.091 114.406C77.9663 115.018 79.0167 115.28 79.9795 115.106C80.9423 114.931 81.9051 114.406 82.5178 113.532C82.9554 112.921 83.1304 112.221 83.218 111.522L94.509 109.687ZM79.7169 113.183C79.1917 113.27 78.579 113.183 78.1414 112.833C77.6162 112.484 77.3536 112.047 77.2661 111.435C77.1786 110.91 77.2661 110.299 77.6162 109.862C77.9663 109.337 78.4915 109.075 79.0167 108.988C79.5418 108.9 80.1545 108.988 80.5921 109.337C81.1173 109.687 81.3799 110.211 81.4674 110.736C81.5549 111.26 81.4674 111.872 81.1173 112.309C80.7672 112.833 80.242 113.095 79.7169 113.183Z" fill="url(#paint5_linear)"/>
<path fill-rule="evenodd" clip-rule="evenodd" d="M69.6512 95.2658L73.4149 118.689C73.058 118.791 72.7307 118.863 72.3813 118.94C72.1309 118.995 71.8691 119.053 71.5768 119.126L67.7256 95.091L70.9641 87.8369C70.2639 87.2251 69.8263 86.3511 69.6512 85.4771C69.4762 84.5157 69.7388 83.4669 70.3515 82.5929C70.9642 81.7189 71.9269 81.1945 72.8897 81.0197C73.8525 80.8449 74.9029 81.1071 75.7781 81.7189C76.6534 82.3307 77.1786 83.2921 77.3536 84.2535C77.5287 85.2149 77.2661 86.2636 76.6534 87.1376C76.0407 88.0116 75.0779 88.5361 74.1151 88.7109C73.59 88.7983 73.0648 88.7982 72.5396 88.6235L69.6512 95.2658ZM71.4018 85.1275C71.4893 85.6519 71.8394 86.1763 72.277 86.5259C72.8022 86.8755 73.3274 86.9629 73.8526 86.8755C74.3777 86.7881 74.9029 86.4385 75.253 86.0015C75.6031 85.5645 75.6906 84.9527 75.6031 84.4283C75.5156 83.9039 75.1655 83.3795 74.7278 83.0299C74.2902 82.6803 73.6775 82.5929 73.1523 82.6803C72.6272 82.7677 72.102 83.1173 71.7519 83.5543C71.4018 83.9913 71.3142 84.6031 71.4018 85.1275Z" fill="url(#paint6_linear)"/>
<path fill-rule="evenodd" clip-rule="evenodd" d="M65.1436 119.913C65.4499 119.891 65.7563 119.869 66.0626 119.825L60.5484 85.9141L65.3624 74.9891C65.8876 75.1639 66.3252 75.1639 66.8504 75.0765C67.8132 74.9017 68.776 74.3773 69.3887 73.5033C70.0014 72.6293 70.2639 71.5805 70.0889 70.6191C69.9138 69.6577 69.3887 68.6963 68.5134 68.0845C67.6381 67.4727 66.5878 67.2105 65.625 67.3853C64.6622 67.5601 63.6994 68.0845 63.0867 68.9585C62.474 69.8325 62.2114 70.8813 62.3865 71.8427C62.5615 72.8041 62.9992 73.6781 63.7869 74.2899L58.7103 85.7393L64.2245 120C64.5309 119.956 64.8372 119.934 65.1436 119.913ZM67.9882 72.4545C67.6381 72.9789 67.1129 73.2411 66.5878 73.3285C66.0626 73.3285 65.4499 73.2411 65.0123 72.9789C64.4871 72.6293 64.2245 72.1049 64.137 71.5805C64.0495 71.0561 64.137 70.4443 64.4871 70.0073C64.8372 69.4829 65.3624 69.2207 65.8876 69.1333C66.4127 69.0459 67.0254 69.1333 67.463 69.4829C67.9882 69.8325 68.2508 70.3569 68.3383 70.8813C68.4258 71.4057 68.3383 72.0175 67.9882 72.4545Z" fill="url(#paint7_linear)"/>
<path fill-rule="evenodd" clip-rule="evenodd" d="M55.1217 119.738C55.7344 119.825 56.3471 119.913 56.9598 119.913L53.1086 95.8776H53.1961C54.1589 95.4406 54.9466 94.654 55.2967 93.6926C55.6469 92.7312 55.6469 91.595 55.2092 90.721C54.7716 89.7596 53.9838 88.9731 53.021 88.6235C52.0582 88.2738 50.9204 88.2739 50.0451 88.7109C49.0823 89.1479 48.2946 89.9345 47.9445 90.8959C47.5943 91.8573 47.5943 92.9934 48.032 93.8674C48.4696 94.8288 49.2574 95.6154 50.2202 95.965C50.5703 96.1398 51.0079 96.2272 51.358 96.2272L55.1217 119.738ZM53.6337 93.2556C53.3712 93.78 53.021 94.2171 52.4959 94.3919C51.9707 94.5667 51.4455 94.5667 50.9204 94.3919C50.3952 94.1297 49.9576 93.78 49.7825 93.2556C49.6075 92.8186 49.6075 92.2068 49.7825 91.6824C50.0451 91.1581 50.3952 90.7211 50.9204 90.5463C51.358 90.3715 51.9707 90.3715 52.4959 90.5463C53.021 90.8085 53.4587 91.1581 53.6337 91.6824C53.8088 92.1194 53.8088 92.7312 53.6337 93.2556Z" fill="url(#paint8_linear)"/>
<path fill-rule="evenodd" clip-rule="evenodd" d="M45.9299 118.252L45.9313 118.252L44.0057 106.715C44.0933 106.672 44.1589 106.65 44.2245 106.628C44.2902 106.606 44.3558 106.584 44.4434 106.54C45.4062 106.103 46.1939 105.317 46.544 104.355C46.8941 103.394 46.8941 102.258 46.4565 101.384C46.0188 100.422 45.2311 99.6358 44.2683 99.2862C43.3055 98.9366 42.1676 98.9366 41.2924 99.3736C40.3296 99.8106 39.5418 100.597 39.1917 101.559C38.8416 102.52 38.8416 103.656 39.2793 104.53C39.7169 105.492 40.5046 106.278 41.4674 106.628C41.73 106.715 41.9926 106.803 42.2552 106.803L44.0057 117.728C44.7054 117.902 45.3177 118.077 45.9299 118.252ZM44.9685 103.744C44.7059 104.268 44.3558 104.705 43.8307 104.88C43.3055 105.142 42.7803 105.142 42.2552 104.967C41.73 104.705 41.2924 104.355 41.1173 103.831C40.9422 103.307 40.9422 102.695 41.1173 102.17C41.3799 101.646 41.73 101.209 42.2552 101.034C42.6928 100.859 43.3055 100.859 43.8307 101.034C44.3558 101.296 44.7935 101.646 44.9685 102.17C45.1436 102.607 45.1436 103.219 44.9685 103.744Z" fill="url(#paint9_linear)"/>
<path fill-rule="evenodd" clip-rule="evenodd" d="M23.8744 107.502C24.3996 107.939 24.8372 108.288 25.3624 108.638L26.9379 104.88C27.4631 105.055 27.9007 105.055 28.4259 104.967C29.3887 104.792 30.3515 104.268 30.9642 103.394C31.5768 102.52 31.8394 101.471 31.6644 100.51C31.4893 99.5484 30.9641 98.5871 30.0889 97.9753C29.2136 97.3634 28.1633 97.1012 27.2005 97.276C26.2377 97.4508 25.2749 97.9753 24.6622 98.8493C24.0495 99.7233 23.7869 100.772 23.962 101.733C24.137 102.695 24.5746 103.569 25.3624 104.181L23.8744 107.502ZM29.5637 102.345C29.2136 102.87 28.6884 103.132 28.1633 103.219C27.6381 103.307 27.0254 103.219 26.5878 102.87C26.0626 102.52 25.8 101.996 25.7125 101.471C25.625 100.947 25.7125 100.335 26.0626 99.898C26.4127 99.3736 26.9379 99.1114 27.463 99.024C27.9882 98.9366 28.6009 99.024 29.0385 99.3736C29.5637 99.7232 29.8263 100.248 29.9138 100.772C30.0013 101.296 29.9138 101.908 29.5637 102.345Z" fill="url(#paint10_linear)"/>
<path fill-rule="evenodd" clip-rule="evenodd" d="M9.25736 91.2018C9.43242 91.4858 9.60747 91.7698 9.78253 92.032L29.6512 88.7983C29.9138 89.5849 30.3514 90.1966 31.0517 90.721C31.9269 91.3328 32.9773 91.5951 33.9401 91.4203C34.9029 91.2455 35.8657 90.721 36.4784 89.847C37.0911 88.973 37.3536 87.9243 37.1786 86.9629C37.0035 86.0015 36.4784 85.0401 35.6031 84.4283C34.7278 83.8165 33.6775 83.5543 32.7147 83.7291C31.7519 83.9039 30.7891 84.4283 30.1764 85.3023C29.8263 85.8267 29.5637 86.4385 29.4762 87.0503L8.7322 90.3715C8.90726 90.6337 9.08231 90.9177 9.25736 91.2018ZM35.3405 87.225C35.4281 87.7494 35.3405 88.3613 34.9904 88.7983C34.7278 89.2353 34.2027 89.5849 33.59 89.6723C33.0648 89.7597 32.4521 89.6722 32.0145 89.3226C31.4893 88.973 31.2267 88.4487 31.1392 87.9243C31.0517 87.3999 31.1392 86.788 31.4893 86.3511C31.8394 85.8267 32.3646 85.5645 32.8897 85.4771C33.4149 85.3897 34.0276 85.477 34.4652 85.8266C34.9904 86.1762 35.253 86.7006 35.3405 87.225Z" fill="url(#paint11_linear)"/>
<path fill-rule="evenodd" clip-rule="evenodd" d="M39.8044 79.4465L5.8438 84.8653C5.74493 84.6349 5.65846 84.4169 5.57507 84.2067C5.43698 83.8586 5.30729 83.5316 5.14357 83.2047L39.5418 77.6985C39.5418 76.9993 39.8044 76.3001 40.242 75.6883C40.8547 74.8143 41.8175 74.2899 42.7803 74.1151C43.7431 73.9403 44.7935 74.2025 45.6687 74.8143C46.544 75.4261 47.0692 76.3875 47.2442 77.3489C47.4193 78.3103 47.1567 79.3591 46.544 80.2331C45.9313 81.1071 44.9685 81.6315 44.0057 81.8063C43.0429 81.9811 41.9926 81.7189 41.1173 81.1071C40.5046 80.6701 40.067 80.0583 39.8044 79.4465ZM41.3799 78.2229C41.3799 78.3977 41.4674 78.6599 41.5549 78.8347C41.73 79.0969 41.9051 79.3591 42.0801 79.8835C42.5177 80.2331 43.1305 80.3205 43.6556 80.2331C44.1808 80.1457 44.7059 79.7961 45.056 79.3591C45.4061 78.9221 45.4937 78.4851 45.4937 78.0481V77.7859C45.4061 77.2615 45.056 76.7371 44.6184 76.3875C44.1808 76.0379 43.5681 75.9505 43.0429 76.0379C42.5177 76.1253 41.9926 76.4749 41.6425 76.9119C41.5987 76.9993 41.555 77.1085 41.5112 77.2178C41.4674 77.327 41.4237 77.4363 41.3799 77.5237V78.2229Z" fill="url(#paint12_linear)"/>
<path fill-rule="evenodd" clip-rule="evenodd" d="M2.29894 74.5521C2.36458 74.8361 2.43023 75.1202 2.51775 75.4261L29.6512 71.0561C29.9138 71.6679 30.3515 72.2797 30.9642 72.7167C31.8394 73.3285 32.8897 73.5907 33.8525 73.4159C34.8153 73.2411 35.7781 72.7167 36.3908 71.8427C37.0035 70.9687 37.2661 69.9199 37.0911 68.9585C36.916 67.9971 36.3908 67.0357 35.5156 66.4239C34.6403 65.8121 33.59 65.5499 32.6272 65.7247C31.6644 65.8995 30.7016 66.4239 30.0889 67.2979C29.5637 67.9097 29.3887 68.6089 29.3011 69.3081L2.08012 73.6781C2.16764 73.984 2.23329 74.268 2.29894 74.5521ZM32.0145 71.3183C31.4893 70.9687 31.2267 70.4443 31.1392 69.9199C31.0517 69.3081 31.1392 68.7837 31.4893 68.3467L31.6644 68.1719C31.9269 67.8223 32.3646 67.6475 32.8022 67.5601C33.3274 67.4727 33.9401 67.5601 34.3777 67.9097C34.9029 68.2593 35.1655 68.7837 35.253 69.3081C35.3405 69.8325 35.253 70.4443 34.9029 70.8813L34.5528 71.2309C34.2902 71.4931 33.9401 71.5805 33.59 71.6679C33.0648 71.7553 32.4521 71.6679 32.0145 71.3183Z" fill="url(#paint13_linear)"/>
<path fill-rule="evenodd" clip-rule="evenodd" d="M4.53089 59.6941L0.679688 55.4115C0.767209 54.625 0.854748 53.8383 1.02979 53.1391L5.8438 58.4705C6.28143 58.1209 6.80659 57.9461 7.33176 57.8587C8.29456 57.6839 9.34489 57.9461 10.2202 58.5579C11.0954 59.1697 11.6206 60.1311 11.7957 61.0925C11.9707 62.0539 11.7081 63.1027 11.0954 63.9767C10.4827 64.8507 9.51995 65.3751 8.55715 65.5499C7.59435 65.7247 6.54402 65.4625 5.66874 64.8507C4.79347 64.2389 4.2683 63.2775 4.09325 62.3161C3.91819 61.4421 4.09325 60.4807 4.53089 59.6941ZM7.59434 59.5193C7.06918 59.6067 6.54401 59.9563 6.1939 60.3933C5.84379 60.9177 5.66874 61.4421 5.8438 61.9665C5.93132 62.4909 6.28143 63.0153 6.71907 63.3649C7.15671 63.7145 7.7694 63.8019 8.29456 63.7145C8.81973 63.6271 9.34488 63.2775 9.69499 62.8405C10.0451 62.4035 10.1326 61.7917 10.0451 61.2673C9.95758 60.7429 9.60747 60.2185 9.16984 59.8689C8.7322 59.5193 8.11951 59.4319 7.59434 59.5193Z" fill="url(#paint14_linear)"/>
<path fill-rule="evenodd" clip-rule="evenodd" d="M4.79346 37.7567C4.68405 38.0408 4.57464 38.3248 4.44335 38.6307C4.67309 38.6766 4.90283 38.6984 5.14523 38.7214C5.36459 38.7422 5.59431 38.764 5.8438 38.8055C6.8066 38.6307 7.76939 38.1063 8.38208 37.2323C8.99477 36.3583 9.16983 35.3969 9.0823 34.4355L21.3361 32.4254L32.7147 43.8747C32.102 44.7487 31.8394 45.7975 32.0145 46.7589C32.1895 47.7203 32.7147 48.6817 33.59 49.2935C34.4652 49.9053 35.5156 50.1675 36.4784 49.9927C37.4412 49.8179 38.404 49.2935 39.0167 48.4195C39.6293 47.5455 39.8919 46.4967 39.7169 45.5353C39.5418 44.5739 39.0167 43.6125 38.1414 43.0007C37.2661 42.3889 36.2158 42.1267 35.253 42.3015C34.9029 42.3015 34.4652 42.4763 34.1151 42.6511L21.9488 30.4151L8.38208 32.6001C8.1195 32.2505 7.85692 31.9883 7.59434 31.7261C7.33001 32.1221 7.11557 32.5678 6.91335 32.9881C6.84773 33.1245 6.7834 33.2583 6.71907 33.3867C6.98165 33.7363 7.15671 34.0859 7.24424 34.4355C7.33177 34.9599 7.24423 35.5717 6.89412 36.0087C6.54401 36.5331 6.01886 36.7953 5.49369 36.8827H5.14357C5.01228 37.1886 4.90287 37.4727 4.79346 37.7567ZM33.765 46.4093C33.6775 45.8849 33.765 45.2731 34.1151 44.8361C34.3777 44.3991 34.9029 44.1369 35.5156 43.9621C36.0407 43.8747 36.6534 43.9621 37.0911 44.3117C37.6162 44.6613 37.8788 45.1857 37.9663 45.7101C38.0539 46.2345 37.9663 46.8463 37.6162 47.2833C37.2661 47.8077 36.741 48.0699 36.2158 48.1573C35.6906 48.2447 35.0779 48.1573 34.6403 47.8077C34.1151 47.4581 33.8525 46.9337 33.765 46.4093Z" fill="url(#paint15_linear)"/>
<path d="M13.6337 22.4617L12.0582 24.5594L20.7234 23.161L27.288 9.96358C26.7628 10.3569 26.2377 10.7283 25.7125 11.0998C25.1873 11.4712 24.6622 11.8427 24.137 12.236L19.4981 21.5004L13.6337 22.4617Z" fill="url(#paint16_linear)"/>
<path fill-rule="evenodd" clip-rule="evenodd" d="M42.7803 2.62198C42.4959 2.70938 42.2114 2.79678 41.9051 2.88418L45.1436 22.6366L45.2311 23.161L49.4324 49.2061C48.6447 49.4683 48.032 49.9053 47.5068 50.6045C46.8941 51.4785 46.6315 52.5273 46.8066 53.4887C46.9816 54.4501 47.5068 55.4115 48.3821 56.0233C49.2574 56.6351 50.3077 56.8973 51.2705 56.7225C52.2333 56.5477 53.1961 56.0233 53.8088 55.1493C54.4215 54.2753 54.6841 53.2265 54.509 52.2651C54.334 51.3037 53.8088 50.3423 52.9335 49.7305C52.4083 49.3809 51.7956 49.1187 51.1829 49.0313L46.9817 22.8987L46.8941 22.3744L43.6556 2.35978C43.3493 2.44718 43.0648 2.53458 42.7803 2.62198ZM52.4084 54.1879C52.0582 54.7123 51.5331 54.9745 51.0079 55.0619C50.4827 55.1493 49.87 54.9745 49.4324 54.7123C48.9072 54.3627 48.6447 53.8383 48.5571 53.3139C48.4696 52.7895 48.5572 52.1777 48.9073 51.7407C49.2574 51.2163 49.7825 50.9541 50.3077 50.8667C50.8328 50.7793 51.4455 50.8667 51.8832 51.2163C52.4083 51.5659 52.6709 52.0903 52.7585 52.6147C52.846 53.1391 52.7585 53.7509 52.4084 54.1879Z" fill="url(#paint17_linear)"/>
<path fill-rule="evenodd" clip-rule="evenodd" d="M54.0714 11.5368L52.3208 0.524404C52.3943 0.512177 52.4695 0.499949 52.5461 0.487481C53.0174 0.410833 53.5444 0.325128 54.0714 0.174784L55.8219 11.1872L56.8722 17.48L62.2114 50.3423C62.9116 50.4297 63.6119 50.6919 64.2245 51.1289C65.0998 51.7407 65.625 52.7021 65.8 53.6635C65.9751 54.6249 65.7125 55.6737 65.0998 56.5477C64.4871 57.4217 63.5243 57.9461 62.5615 58.1209C61.5987 58.2957 60.5484 58.0335 59.6731 57.4217C58.7978 56.8099 58.2727 55.8485 58.0976 54.8871C57.9226 53.9257 58.1852 52.8769 58.7978 52.0029C59.2355 51.3911 59.8482 50.9541 60.4609 50.6919L55.1217 17.8296L54.0714 11.5368ZM63.9619 54.6249C64.0495 54.4501 64.0495 54.1879 64.0495 53.7509C63.962 53.2265 63.6118 52.7021 63.1742 52.3525C62.7366 52.0029 62.1239 51.9155 61.5987 52.0029C61.0736 52.0903 60.6359 52.3525 60.2858 52.7895C59.9357 53.2265 59.8482 53.7509 59.9357 54.2753C60.0232 54.7997 60.3733 55.3241 60.811 55.6737C61.2486 56.0233 61.8613 56.1107 62.3865 56.0233C62.8241 56.0233 63.1742 55.8485 63.4368 55.5863L63.6994 55.3241V55.2367C63.7431 55.193 63.765 55.1493 63.7869 55.1056C63.8088 55.0619 63.8307 55.0182 63.8744 54.9745C63.9619 54.8871 63.9619 54.8871 63.9619 54.7997V54.6249Z" fill="url(#paint18_linear)"/>
<path fill-rule="evenodd" clip-rule="evenodd" d="M82.4302 101.559C81.4674 101.733 80.4171 101.471 79.5418 100.859C78.6666 100.248 78.1414 99.2862 77.9663 98.3248C77.7913 97.3634 78.0539 96.3146 78.6666 95.4406C79.2793 94.5666 80.2421 94.0422 81.2048 93.8674C81.9051 93.78 82.7803 93.8674 83.4806 94.217L88.7322 87.0503C88.2946 86.5259 87.9445 85.8267 87.8569 85.1275C87.6819 84.1661 87.9444 83.1173 88.5571 82.2433C89.1698 81.3693 90.1326 80.8449 91.0954 80.6701C92.0582 80.4953 93.1086 80.7575 93.9838 81.3693C94.8591 81.9811 95.3843 82.9425 95.5593 83.9039C95.7344 84.8653 95.4718 85.914 94.8591 86.788C94.2464 87.662 93.2836 88.1865 92.3208 88.3613C91.6206 88.4487 90.9204 88.3612 90.2202 88.099L84.881 95.3533C85.3186 95.8777 85.5812 96.4894 85.6687 97.1012C85.8438 98.0626 85.5812 99.1114 84.9685 99.9854C84.3558 100.859 83.393 101.384 82.4302 101.559ZM89.9138 83.5106C89.87 83.6198 89.8263 83.7291 89.7825 83.8165C89.6075 84.1661 89.6075 84.5157 89.695 84.6905C89.7825 85.2149 90.1326 85.7393 90.5703 86.0889C91.0079 86.4385 91.6206 86.5259 92.1458 86.4385C92.6709 86.3511 93.1961 86.0014 93.5462 85.5645C93.6337 85.4771 93.7213 85.3023 93.8088 85.1275C93.8963 84.7779 93.9838 84.4283 93.8963 84.0787C93.8088 83.5543 93.4587 83.0299 93.021 82.6803C92.5834 82.3307 91.9707 82.2432 91.4455 82.3307C90.9204 82.4181 90.3952 82.7677 90.0451 83.2047C90.0014 83.2921 89.9576 83.4013 89.9138 83.5106ZM80.5921 99.461C81.0298 99.8106 81.6425 99.898 82.1676 99.8106C82.6928 99.7232 83.218 99.461 83.5681 98.9366C83.9182 98.4996 84.0057 97.8878 83.9182 97.3634C83.8307 96.839 83.4806 96.3146 83.0429 95.965C82.6053 95.6154 81.9926 95.528 81.4674 95.6154C80.9423 95.7028 80.4171 96.0524 80.067 96.4894C79.7169 96.9264 79.6293 97.5382 79.7169 98.0626C79.8044 98.587 80.1545 99.1114 80.5921 99.461Z" fill="url(#paint19_linear)"/>
<path fill-rule="evenodd" clip-rule="evenodd" d="M96.4346 37.0575C96.172 36.3583 95.997 35.6591 96.0845 34.9599C96.172 33.9985 96.6097 33.0372 97.4849 32.4254C98.3602 31.7262 99.4105 31.464 100.373 31.5514C101.336 31.6388 102.299 32.1631 102.999 32.9497C103.699 33.8237 103.962 34.8725 103.874 35.8339C103.787 36.7953 103.262 37.7567 102.474 38.4559C101.599 39.1551 100.548 39.4173 99.5856 39.3299C98.8854 39.2425 98.1851 38.9803 97.5724 38.5433L90.6578 44.2243C91.0954 44.9235 91.2705 45.7101 91.183 46.4967C91.0954 47.4581 90.6578 48.4195 89.7825 49.1187C88.9072 49.8179 87.8569 50.0801 86.8941 49.9927C85.9313 49.9053 84.9685 49.4683 84.2683 48.5943C83.5681 47.7203 83.3055 46.6715 83.393 45.7101C83.4806 44.7487 83.9182 43.7873 84.7935 43.0881C85.6687 42.3889 86.7191 42.1267 87.6819 42.2141C88.3821 42.2141 88.9948 42.4763 89.5199 42.8259L96.4346 37.0575ZM101.249 33.78C101.161 33.7145 101.074 33.6489 100.986 33.5615C100.548 33.2993 100.023 33.2119 99.4981 33.1245C98.9729 33.2119 98.4477 33.5615 98.0976 33.9985C97.7475 34.4355 97.66 35.0473 97.7475 35.5717C97.835 36.0961 98.1851 36.6205 98.6228 36.9701C98.6896 37.0035 98.7437 37.0241 98.7899 37.0418C98.8647 37.0703 98.9188 37.0909 98.9729 37.1449C99.1479 37.2323 99.4105 37.3197 99.6731 37.3197C100.198 37.4071 100.723 37.2323 101.161 36.8827C101.599 36.5331 101.861 36.0087 101.949 35.4843C102.036 34.9599 101.861 34.4355 101.511 33.9985C101.424 33.9111 101.336 33.8456 101.249 33.78ZM85.2311 45.7975C85.1436 46.3219 85.3186 46.9337 85.6687 47.3707C86.0189 47.8077 86.544 48.0699 87.0692 48.1573C87.5943 48.2447 88.207 48.0699 88.6447 47.7203C89.0823 47.3707 89.3449 46.8463 89.4324 46.3219C89.5199 45.7975 89.3449 45.1857 88.9948 44.7487C88.6447 44.3117 88.1195 44.0495 87.5943 43.9621C87.0692 43.8747 86.4565 44.0495 86.0189 44.3991C85.5812 44.7487 85.3186 45.2731 85.2311 45.7975Z" fill="url(#paint20_linear)"/>
<path fill-rule="evenodd" clip-rule="evenodd" d="M27.5506 53.1391C26.6753 52.5273 25.625 52.2651 24.6622 52.4399C23.962 52.5273 23.2617 52.7895 22.7366 53.4013L15.3843 48.1573C15.6469 47.5455 15.6469 46.8463 15.5593 46.2345C15.3843 45.2731 14.8591 44.3117 13.9838 43.6999C13.1086 43.0881 12.0582 42.8259 11.0954 43.0007C10.1326 43.1755 9.16984 43.6999 8.55715 44.5739C7.94446 45.4479 7.68187 46.4967 7.85693 47.4581C8.03198 48.4195 8.55715 49.3809 9.43242 49.9927C10.3077 50.6045 11.358 50.8667 12.3208 50.6919C13.1086 50.6045 13.8088 50.2549 14.4215 49.6431L21.6863 54.7997C21.4237 55.4115 21.3361 56.1981 21.4237 56.8973C21.5987 57.8587 22.1239 58.8201 22.9992 59.4319C23.8744 60.0437 24.9248 60.3059 25.8876 60.1311C26.8504 59.9563 27.8132 59.4319 28.4259 58.5579C29.0385 57.6839 29.3011 56.6351 29.1261 55.6737C28.951 54.7123 28.4259 53.7509 27.5506 53.1391ZM24.5746 54.2316C24.4652 54.2753 24.3558 54.319 24.2245 54.3627C23.962 54.5375 23.6994 54.7997 23.5243 54.9745C23.1742 55.4115 23.0867 56.0233 23.1742 56.5477C23.2617 57.0721 23.6118 57.5965 24.0495 57.9461C24.4871 58.2957 25.0998 58.3831 25.625 58.2957C25.8 58.2957 26.0626 58.2083 26.2377 58.1209C26.5878 57.9461 26.8504 57.6839 27.0254 57.4217C27.3755 56.9847 27.4631 56.3729 27.3755 55.8485C27.288 55.3241 26.9379 54.7997 26.5003 54.4501C26.0626 54.1005 25.4499 54.0131 24.9248 54.1005C24.7935 54.1442 24.6841 54.1879 24.5746 54.2316ZM9.60747 47.1959C9.51995 46.6715 9.60747 46.0597 9.95758 45.6227C10.3077 45.0983 10.7453 44.8361 11.358 44.7487C11.8832 44.6613 12.4959 44.7487 12.9335 45.0983C13.4587 45.4479 13.7213 45.9723 13.8088 46.4967C13.8963 47.0211 13.8088 47.6329 13.4587 48.0699C13.1086 48.5943 12.5834 48.8565 12.0582 48.9439C11.5331 49.0313 10.9204 48.9439 10.4827 48.5943C9.95758 48.2447 9.695 47.7203 9.60747 47.1959Z" fill="url(#paint21_linear)"/>
<path fill-rule="evenodd" clip-rule="evenodd" d="M40.6797 62.2287C39.7169 62.4035 38.6665 62.1413 37.7913 61.5295C36.916 60.9177 36.3909 59.9563 36.2158 59.0823C36.0407 58.1209 36.3033 57.0721 36.916 56.1981C37.5287 55.3241 38.4915 54.7997 39.4543 54.6249C40.4171 54.4501 41.4674 54.7123 42.3427 55.3241C43.218 55.9359 43.7431 56.8973 43.9182 57.8587C44.0057 58.2957 44.0057 58.7327 43.9182 59.1697L53.3711 63.2775L120.33 52.5273C120.375 52.7989 120.397 53.0939 120.419 53.4002C120.441 53.6854 120.462 53.9803 120.505 54.2753L53.1086 65.1129L43.1305 60.7429C42.5178 61.6169 41.6425 62.0539 40.6797 62.2287ZM40.4171 60.3933C39.8919 60.4807 39.2793 60.3933 38.8416 60.0437C38.404 59.6941 38.0539 59.2571 37.9663 58.6453C37.8788 58.1209 37.9663 57.5091 38.3164 57.0721C38.6666 56.5477 39.1917 56.2855 39.7169 56.1981C40.2421 56.1107 40.8547 56.1981 41.2924 56.5477C41.8175 56.8973 42.0801 57.4217 42.1676 57.9461C42.2552 58.4705 42.1676 59.0823 41.8175 59.5193C41.4674 60.0437 40.9423 60.3059 40.4171 60.3933Z" fill="url(#paint22_linear)"/>
<path fill-rule="evenodd" clip-rule="evenodd" d="M83.8307 72.5419C84.3558 71.9301 84.5309 71.2309 84.6184 70.5317L120.592 64.6759C120.592 64.37 120.614 64.0641 120.636 63.7582C120.658 63.4523 120.68 63.1464 120.68 62.8405L84.2683 68.7837C84.0057 68.1719 83.5681 67.5601 82.9554 67.1231C82.0801 66.5113 81.0298 66.2491 80.067 66.4239C79.1042 66.5987 78.1414 67.1231 77.5287 67.9971C76.916 68.8711 76.6534 69.9199 76.8285 70.8813C77.0035 71.8427 77.5287 72.8041 78.404 73.4159C79.2792 74.0277 80.3296 74.2899 81.2924 74.1151C82.2552 73.9403 83.218 73.4159 83.8307 72.5419ZM82.4302 71.4057C82.0801 71.9301 81.5549 72.1923 81.0298 72.2797C80.5046 72.3671 79.8919 72.2797 79.4543 71.9301C78.9291 71.5805 78.6665 71.0561 78.579 70.5317C78.4915 70.0073 78.579 69.3955 78.9291 68.9585C79.2792 68.4341 79.8044 68.1719 80.3296 68.0845C80.8547 67.9971 81.4674 68.0845 81.9051 68.4341C82.4302 68.7837 82.6928 69.3081 82.7803 69.8325C82.8679 70.3569 82.7803 70.9687 82.4302 71.4057Z" fill="url(#paint23_linear)"/>
<defs>
<linearGradient id="paint0_linear" x1="122.669" y1="34.4665" x2="22.97" y2="79.2657" gradientUnits="userSpaceOnUse">
<stop stop-color="#1F2D75"/>
<stop offset="0.19" stop-color="#183782"/>
<stop offset="0.6" stop-color="#1672B9"/>
<stop offset="1" stop-color="#2299D6"/>
</linearGradient>
<linearGradient id="paint1_linear" x1="114.868" y1="10.0968" x2="107.759" y2="13.2421" gradientUnits="userSpaceOnUse">
<stop stop-color="#1F2D75"/>
<stop offset="0.19" stop-color="#183782"/>
<stop offset="0.6" stop-color="#1672B9"/>
<stop offset="1" stop-color="#2299D6"/>
</linearGradient>
<linearGradient id="paint2_linear" x1="112.097" y1="43.5683" x2="14.0683" y2="74.6972" gradientUnits="userSpaceOnUse">
<stop stop-color="#1E2F78"/>
<stop offset="0.08" stop-color="#1D307A"/>
<stop offset="0.21" stop-color="#163883"/>
<stop offset="0.69" stop-color="#4FB6E8"/>
<stop offset="1" stop-color="#5BC5F2"/>
</linearGradient>
<linearGradient id="paint3_linear" x1="112.097" y1="43.5683" x2="14.0683" y2="74.6972" gradientUnits="userSpaceOnUse">
<stop stop-color="#1E2F78"/>
<stop offset="0.08" stop-color="#1D307A"/>
<stop offset="0.21" stop-color="#163883"/>
<stop offset="0.69" stop-color="#4FB6E8"/>
<stop offset="1" stop-color="#5BC5F2"/>
</linearGradient>
<linearGradient id="paint4_linear" x1="112.097" y1="43.5683" x2="14.0683" y2="74.6972" gradientUnits="userSpaceOnUse">
<stop stop-color="#1E2F78"/>
<stop offset="0.08" stop-color="#1D307A"/>
<stop offset="0.21" stop-color="#163883"/>
<stop offset="0.69" stop-color="#4FB6E8"/>
<stop offset="1" stop-color="#5BC5F2"/>
</linearGradient>
<linearGradient id="paint5_linear" x1="112.097" y1="43.5683" x2="14.0683" y2="74.6972" gradientUnits="userSpaceOnUse">
<stop stop-color="#1E2F78"/>
<stop offset="0.08" stop-color="#1D307A"/>
<stop offset="0.21" stop-color="#163883"/>
<stop offset="0.69" stop-color="#4FB6E8"/>
<stop offset="1" stop-color="#5BC5F2"/>
</linearGradient>
<linearGradient id="paint6_linear" x1="112.097" y1="43.5683" x2="14.0683" y2="74.6972" gradientUnits="userSpaceOnUse">
<stop stop-color="#1E2F78"/>
<stop offset="0.08" stop-color="#1D307A"/>
<stop offset="0.21" stop-color="#163883"/>
<stop offset="0.69" stop-color="#4FB6E8"/>
<stop offset="1" stop-color="#5BC5F2"/>
</linearGradient>
<linearGradient id="paint7_linear" x1="112.097" y1="43.5683" x2="14.0683" y2="74.6972" gradientUnits="userSpaceOnUse">
<stop stop-color="#1E2F78"/>
<stop offset="0.08" stop-color="#1D307A"/>
<stop offset="0.21" stop-color="#163883"/>
<stop offset="0.69" stop-color="#4FB6E8"/>
<stop offset="1" stop-color="#5BC5F2"/>
</linearGradient>
<linearGradient id="paint8_linear" x1="112.097" y1="43.5683" x2="14.0683" y2="74.6972" gradientUnits="userSpaceOnUse">
<stop stop-color="#1E2F78"/>
<stop offset="0.08" stop-color="#1D307A"/>
<stop offset="0.21" stop-color="#163883"/>
<stop offset="0.69" stop-color="#4FB6E8"/>
<stop offset="1" stop-color="#5BC5F2"/>
</linearGradient>
<linearGradient id="paint9_linear" x1="112.097" y1="43.5683" x2="14.0683" y2="74.6972" gradientUnits="userSpaceOnUse">
<stop stop-color="#1E2F78"/>
<stop offset="0.08" stop-color="#1D307A"/>
<stop offset="0.21" stop-color="#163883"/>
<stop offset="0.69" stop-color="#4FB6E8"/>
<stop offset="1" stop-color="#5BC5F2"/>
</linearGradient>
<linearGradient id="paint10_linear" x1="112.097" y1="43.5683" x2="14.0683" y2="74.6972" gradientUnits="userSpaceOnUse">
<stop stop-color="#1E2F78"/>
<stop offset="0.08" stop-color="#1D307A"/>
<stop offset="0.21" stop-color="#163883"/>
<stop offset="0.69" stop-color="#4FB6E8"/>
<stop offset="1" stop-color="#5BC5F2"/>
</linearGradient>
<linearGradient id="paint11_linear" x1="112.097" y1="43.5683" x2="14.0683" y2="74.6972" gradientUnits="userSpaceOnUse">
<stop stop-color="#1E2F78"/>
<stop offset="0.08" stop-color="#1D307A"/>
<stop offset="0.21" stop-color="#163883"/>
<stop offset="0.69" stop-color="#4FB6E8"/>
<stop offset="1" stop-color="#5BC5F2"/>
</linearGradient>
<linearGradient id="paint12_linear" x1="112.097" y1="43.5683" x2="14.0683" y2="74.6972" gradientUnits="userSpaceOnUse">
<stop stop-color="#1E2F78"/>
<stop offset="0.08" stop-color="#1D307A"/>
<stop offset="0.21" stop-color="#163883"/>
<stop offset="0.69" stop-color="#4FB6E8"/>
<stop offset="1" stop-color="#5BC5F2"/>
</linearGradient>
<linearGradient id="paint13_linear" x1="112.097" y1="43.5683" x2="14.0683" y2="74.6972" gradientUnits="userSpaceOnUse">
<stop stop-color="#1E2F78"/>
<stop offset="0.08" stop-color="#1D307A"/>
<stop offset="0.21" stop-color="#163883"/>
<stop offset="0.69" stop-color="#4FB6E8"/>
<stop offset="1" stop-color="#5BC5F2"/>
</linearGradient>
<linearGradient id="paint14_linear" x1="112.097" y1="43.5683" x2="14.0683" y2="74.6972" gradientUnits="userSpaceOnUse">
<stop stop-color="#1E2F78"/>
<stop offset="0.08" stop-color="#1D307A"/>
<stop offset="0.21" stop-color="#163883"/>
<stop offset="0.69" stop-color="#4FB6E8"/>
<stop offset="1" stop-color="#5BC5F2"/>
</linearGradient>
<linearGradient id="paint15_linear" x1="112.097" y1="43.5683" x2="14.0683" y2="74.6972" gradientUnits="userSpaceOnUse">
<stop stop-color="#1E2F78"/>
<stop offset="0.08" stop-color="#1D307A"/>
<stop offset="0.21" stop-color="#163883"/>
<stop offset="0.69" stop-color="#4FB6E8"/>
<stop offset="1" stop-color="#5BC5F2"/>
</linearGradient>
<linearGradient id="paint16_linear" x1="112.097" y1="43.5683" x2="14.0683" y2="74.6972" gradientUnits="userSpaceOnUse">
<stop stop-color="#1E2F78"/>
<stop offset="0.08" stop-color="#1D307A"/>
<stop offset="0.21" stop-color="#163883"/>
<stop offset="0.69" stop-color="#4FB6E8"/>
<stop offset="1" stop-color="#5BC5F2"/>
</linearGradient>
<linearGradient id="paint17_linear" x1="112.097" y1="43.5683" x2="14.0683" y2="74.6972" gradientUnits="userSpaceOnUse">
<stop stop-color="#1E2F78"/>
<stop offset="0.08" stop-color="#1D307A"/>
<stop offset="0.21" stop-color="#163883"/>
<stop offset="0.69" stop-color="#4FB6E8"/>
<stop offset="1" stop-color="#5BC5F2"/>
</linearGradient>
<linearGradient id="paint18_linear" x1="112.097" y1="43.5683" x2="14.0683" y2="74.6972" gradientUnits="userSpaceOnUse">
<stop stop-color="#1E2F78"/>
<stop offset="0.08" stop-color="#1D307A"/>
<stop offset="0.21" stop-color="#163883"/>
<stop offset="0.69" stop-color="#4FB6E8"/>
<stop offset="1" stop-color="#5BC5F2"/>
</linearGradient>
<linearGradient id="paint19_linear" x1="112.097" y1="43.5683" x2="14.0683" y2="74.6972" gradientUnits="userSpaceOnUse">
<stop stop-color="#1E2F78"/>
<stop offset="0.08" stop-color="#1D307A"/>
<stop offset="0.21" stop-color="#163883"/>
<stop offset="0.69" stop-color="#4FB6E8"/>
<stop offset="1" stop-color="#5BC5F2"/>
</linearGradient>
<linearGradient id="paint20_linear" x1="112.097" y1="43.5683" x2="14.0683" y2="74.6972" gradientUnits="userSpaceOnUse">
<stop stop-color="#1E2F78"/>
<stop offset="0.08" stop-color="#1D307A"/>
<stop offset="0.21" stop-color="#163883"/>
<stop offset="0.69" stop-color="#4FB6E8"/>
<stop offset="1" stop-color="#5BC5F2"/>
</linearGradient>
<linearGradient id="paint21_linear" x1="112.097" y1="43.5683" x2="14.0683" y2="74.6972" gradientUnits="userSpaceOnUse">
<stop stop-color="#1E2F78"/>
<stop offset="0.08" stop-color="#1D307A"/>
<stop offset="0.21" stop-color="#163883"/>
<stop offset="0.69" stop-color="#4FB6E8"/>
<stop offset="1" stop-color="#5BC5F2"/>
</linearGradient>
<linearGradient id="paint22_linear" x1="112.097" y1="43.5683" x2="14.0683" y2="74.6972" gradientUnits="userSpaceOnUse">
<stop stop-color="#1E2F78"/>
<stop offset="0.08" stop-color="#1D307A"/>
<stop offset="0.21" stop-color="#163883"/>
<stop offset="0.69" stop-color="#4FB6E8"/>
<stop offset="1" stop-color="#5BC5F2"/>
</linearGradient>
<linearGradient id="paint23_linear" x1="112.097" y1="43.5683" x2="14.0683" y2="74.6972" gradientUnits="userSpaceOnUse">
<stop stop-color="#1E2F78"/>
<stop offset="0.08" stop-color="#1D307A"/>
<stop offset="0.21" stop-color="#163883"/>
<stop offset="0.69" stop-color="#4FB6E8"/>
<stop offset="1" stop-color="#5BC5F2"/>
</linearGradient>
</defs>
</svg>
