<svg width="48" height="48" viewBox="0 0 48 48" fill="none" xmlns="http://www.w3.org/2000/svg">
<circle cx="24" cy="24" r="17" fill="url(#paint0_linear)"/>
<path fill-rule="evenodd" clip-rule="evenodd" d="M23.0012 15C23.5535 15.0001 24.0011 15.4478 24.0011 16.0001L24 24.9481L30.6872 31.2735C31.0884 31.653 31.106 32.286 30.7265 32.6872C30.347 33.0884 29.714 33.106 29.3128 32.7265L22.3128 26.1051C22.1131 25.9162 22 25.6534 22 25.3785L22.0011 15.9999C22.0011 15.4476 22.4489 14.9999 23.0012 15Z" fill="#118AE0"/>
<path d="M6 24C6 33.9411 14.0589 42 24 42C30.454 42 36.1146 38.6033 39.2918 33.5M42 24C42 14.0589 33.9411 6 24 6C16.7355 6 10.4761 10.3034 7.63213 16.5M38.0001 21.0001L42 25L45.9999 21.0001M2 26.9999L5.99994 23L9.99988 26.9999" stroke="#118AE0" stroke-width="2" stroke-linecap="round" stroke-linejoin="round"/>
<defs>
<linearGradient id="paint0_linear" x1="5.787" y1="26.2262" x2="40.968" y2="26.3878" gradientUnits="userSpaceOnUse">
<stop stop-color="#4FB6E8" stop-opacity="0.29"/>
<stop offset="1" stop-color="#118AE0" stop-opacity="0"/>
</linearGradient>
</defs>
</svg>
