<svg width="48" height="48" viewBox="0 0 48 48" fill="none" xmlns="http://www.w3.org/2000/svg">
<path fill-rule="evenodd" clip-rule="evenodd" d="M23.0222 9L2 17.4L13.0747 21.8252H11.5557V34.2666C11.5557 34.2666 16.3658 38.9999 23.0224 38.9999C29.679 38.9999 34.4891 34.2666 34.4891 34.2666V21.8252H32.9697L44.0444 17.4L23.0222 9Z" fill="url(#paint0_linear)"/>
<path d="M2 17.4L23.0222 9L44.0444 17.4L23.0222 25.8L2 17.4Z" fill="url(#paint1_linear)"/>
<path fill-rule="evenodd" clip-rule="evenodd" d="M22.6511 8.07139C22.8894 7.9762 23.155 7.9762 23.3933 8.07139L44.4155 16.4714C44.7953 16.6232 45.0444 16.991 45.0444 17.4C45.0444 17.4183 45.0439 17.4364 45.0429 17.4545C45.0439 17.4729 45.0444 17.4914 45.0444 17.51V26.7332C45.0444 27.2855 44.5967 27.7332 44.0444 27.7332C43.4921 27.7332 43.0444 27.2855 43.0444 26.7332V18.8764L35.4891 21.8954V34.2666C35.4891 34.5346 35.3815 34.7914 35.1905 34.9794L34.4891 34.2666C35.1905 34.9794 35.1902 34.9796 35.1899 34.9799L35.1893 34.9805L35.1876 34.9821L35.183 34.9866L35.1685 35.0006L35.1446 35.0236L35.1186 35.0481C35.076 35.0882 35.0151 35.1445 34.9365 35.2149C34.7794 35.3557 34.5513 35.5527 34.258 35.7872C33.6722 36.2556 32.8222 36.8768 31.7547 37.4977C29.6273 38.7349 26.5856 39.9999 23.0224 39.9999C19.4591 39.9999 16.4174 38.7349 14.29 37.4977C13.2225 36.8768 12.3726 36.2556 11.7867 35.7872C11.4935 35.5527 11.2654 35.3557 11.1082 35.2149C11.0296 35.1445 10.9687 35.0882 10.9262 35.0481C10.9049 35.0281 10.8882 35.0122 10.8762 35.0006L10.8617 34.9866L10.8571 34.9821L10.8555 34.9805L10.8548 34.9799C10.8545 34.9796 10.8543 34.9794 11.5557 34.2666L10.8543 34.9794C10.6632 34.7914 10.5557 34.5346 10.5557 34.2666V21.8955L1.62895 18.3286C1.24911 18.1768 1 17.809 1 17.4C1 16.991 1.24911 16.6232 1.62895 16.4714L22.6511 8.07139ZM12.5557 22.6947V33.825C12.6795 33.933 12.8404 34.0689 13.0358 34.2252C13.5598 34.6442 14.3285 35.2064 15.2955 35.7688C17.2374 36.8982 19.929 37.9999 23.0224 37.9999C26.1157 37.9999 28.8073 36.8982 30.7492 35.7688C31.7162 35.2064 32.4849 34.6442 33.009 34.2252C33.2044 34.0689 33.3652 33.933 33.4891 33.825V22.6945L23.3933 26.7286C23.155 26.8238 22.8894 26.8238 22.6511 26.7286L12.5557 22.6947ZM4.69504 17.4L23.0222 24.7231L41.3494 17.4L23.0222 10.0769L4.69504 17.4Z" fill="#118AE0"/>
<defs>
<linearGradient id="paint0_linear" x1="0.5" y1="18.5" x2="44" y2="19" gradientUnits="userSpaceOnUse">
<stop stop-color="#4FB6E8" stop-opacity="0.5"/>
<stop offset="1" stop-color="#118AE0" stop-opacity="0"/>
</linearGradient>
<linearGradient id="paint1_linear" x1="0.5" y1="18.5" x2="44" y2="19" gradientUnits="userSpaceOnUse">
<stop stop-color="#4FB6E8" stop-opacity="0.29"/>
<stop offset="1" stop-color="#118AE0" stop-opacity="0"/>
</linearGradient>
</defs>
</svg>
