<svg width="48" height="48" viewBox="0 0 48 48" fill="none" xmlns="http://www.w3.org/2000/svg">
<path d="M24.0002 4L31.2002 11.5292L41.3207 14L38.4002 24L41.3207 34L31.2002 36.4708L24.0002 44L16.8002 36.4708L6.67969 34L9.6002 24L6.67969 14L16.8002 11.5292L24.0002 4Z" fill="url(#paint0_linear)"/>
<path fill-rule="evenodd" clip-rule="evenodd" d="M24.7229 3.30887C24.5343 3.11159 24.2732 3 24.0002 3C23.7272 3 23.4661 3.11159 23.2775 3.30887L16.2793 10.627L6.44252 13.0285C6.17734 13.0933 5.95015 13.2636 5.81366 13.5C5.67718 13.7364 5.64327 14.0183 5.71979 14.2803L8.55843 24L5.71979 33.7197C5.64327 33.9817 5.67718 34.2636 5.81366 34.5C5.95015 34.7364 6.17734 34.9067 6.44252 34.9715L16.2793 37.373L23.2775 44.6911C23.4661 44.8884 23.7272 45 24.0002 45C24.2732 45 24.5343 44.8884 24.7229 44.6911L31.7211 37.373L41.5579 34.9715C41.8231 34.9067 42.0502 34.7364 42.1867 34.5C42.3232 34.2636 42.3571 33.9817 42.2806 33.7197L39.442 24L42.2806 14.2803C42.3571 14.0183 42.3232 13.7364 42.1867 13.5C42.0502 13.2636 41.8231 13.0933 41.5579 13.0285L31.7211 10.627L24.7229 3.30887ZM18.2757 11.4332L24.0002 5.44691L29.7246 11.433L23.9999 14.3643L18.2757 11.4332ZM15.9789 12.7591L7.93275 14.7235L10.2547 22.6739L15.6552 19.1822L15.9789 12.7591ZM10.2547 25.3262L7.93275 33.2765L15.9789 35.2409L15.6552 28.8179L10.2547 25.3262ZM18.2757 36.5668L24.0002 42.5531L29.7246 36.567L23.9999 33.6357L18.2757 36.5668ZM32.021 35.241L40.0676 33.2765L37.7456 25.3258L32.3448 28.8179L32.021 35.241ZM37.7456 22.6742L40.0676 14.7235L32.021 12.759L32.3448 19.1822L37.7456 22.6742ZM24.4557 16.3778L30.0563 13.51L30.3731 19.7943C30.3893 20.1154 30.5589 20.4091 30.8289 20.5837L36.1127 24L30.8289 27.4164C30.5589 27.591 30.3893 27.8847 30.3731 28.2058L30.0563 34.4899L24.4557 31.6221C24.1695 31.4756 23.8303 31.4756 23.5441 31.6221L17.9436 34.4899L17.6268 28.2058C17.6107 27.8847 17.4411 27.5909 17.1711 27.4164L11.8872 24L17.1711 20.5837C17.4411 20.4091 17.6107 20.1154 17.6268 19.7943L17.9436 13.5101L23.5441 16.3778C23.8303 16.5244 24.1695 16.5244 24.4557 16.3778Z" fill="#118AE0"/>
<defs>
<linearGradient id="paint0_linear" x1="5.44382" y1="26.619" x2="41.2883" y2="26.7616" gradientUnits="userSpaceOnUse">
<stop stop-color="#4FB6E8" stop-opacity="0.29"/>
<stop offset="1" stop-color="#118AE0" stop-opacity="0"/>
</linearGradient>
</defs>
</svg>
