<svg width="48" height="48" viewBox="0 0 48 48" fill="none" xmlns="http://www.w3.org/2000/svg">
<path fill-rule="evenodd" clip-rule="evenodd" d="M25 6C25 5.44772 24.5523 5 24 5C23.4477 5 23 5.44772 23 6V11.4197L9.5185 19.1234C9.363 19.2086 9.22824 19.3362 9.13337 19.5011L9.12981 19.5073C9.03846 19.6686 8.9968 19.8446 9.00001 20.0176V35.382L3.55279 38.1056C3.05881 38.3526 2.85859 38.9532 3.10558 39.4472C3.35257 39.9412 3.95324 40.1414 4.44722 39.8944L9.96854 37.1338L23.4886 44.8595C23.6383 44.9488 23.8132 45 24 45C24.1869 45 24.3617 44.9487 24.5114 44.8595L38.0315 37.1338L43.5528 39.8944C44.0468 40.1414 44.6474 39.9412 44.8944 39.4472C45.1414 38.9532 44.9412 38.3526 44.4472 38.1056L39 35.382V20.0174C39.0031 19.8481 38.9632 19.6758 38.8757 19.5172L38.8674 19.5024L38.8609 19.4911C38.7663 19.3311 38.6339 19.2069 38.4816 19.1234L25 11.4197V6ZM25 42.2768L37 35.4197V21.7232L25 28.5803V42.2768ZM23 28.5803L11 21.7232V35.4197L23 42.2768V28.5803ZM24 26.8482L35.9844 20L24 13.1518L12.0156 20L24 26.8482Z" fill="#118AE0"/>
</svg>
