<svg width="48" height="48" viewBox="0 0 48 48" fill="none" xmlns="http://www.w3.org/2000/svg">
<path d="M7.77542 25.8933C7.96059 25.6845 8.04843 25.408 8.02843 25.1297C8.00161 24.7563 7.98797 24.3793 7.98797 23.9991C7.98797 23.6189 8.00161 23.2419 8.02843 22.8686C8.04843 22.5903 7.96059 22.3137 7.77542 22.1049L4.47838 18.3877C4.19271 18.0657 4.14524 17.5969 4.36053 17.2241L8.08494 10.7748C8.30017 10.4021 8.72971 10.2089 9.15135 10.2952L14.0193 11.2911C14.2933 11.3471 14.5773 11.2845 14.8085 11.1273C15.4308 10.7042 16.0853 10.3252 16.7676 9.99442C17.0189 9.8726 17.2148 9.6582 17.3031 9.39325L18.8733 4.6837C19.0095 4.2754 19.3916 4 19.822 4H27.2712C27.7016 4 28.0838 4.2754 28.2199 4.6837L29.7901 9.39325C29.8785 9.6582 30.0743 9.8726 30.3257 9.99442C31.008 10.3252 31.6625 10.7042 32.2847 11.1273C32.516 11.2845 32.8 11.3471 33.0739 11.2911L37.9419 10.2952C38.3635 10.2089 38.7931 10.4021 39.0083 10.7748L42.7327 17.2241C42.948 17.5969 42.9005 18.0657 42.6149 18.3877L39.3178 22.1049C39.1326 22.3137 39.0448 22.5903 39.0648 22.8686C39.0916 23.2419 39.1053 23.6189 39.1053 23.9991C39.1053 24.3793 39.0916 24.7563 39.0648 25.1297C39.0448 25.408 39.1326 25.6845 39.3178 25.8933L42.6149 29.6105C42.9005 29.9326 42.948 30.4013 42.7327 30.7742L39.0083 37.2235C38.7931 37.5962 38.3635 37.7893 37.9419 37.7031L33.0739 36.7072C32.8 36.6511 32.516 36.7138 32.2847 36.871C31.6625 37.294 31.008 37.6731 30.3257 38.0038C30.0743 38.1256 29.8785 38.3401 29.7901 38.605L28.2199 43.3145C28.0838 43.7229 27.7016 43.9983 27.2712 43.9983H19.822C19.3916 43.9983 19.0095 43.7229 18.8733 43.3145L17.3031 38.605C17.2148 38.3401 17.0189 38.1256 16.7676 38.0038C16.0853 37.6731 15.4308 37.294 14.8085 36.871C14.5773 36.7138 14.2933 36.6511 14.0193 36.7072L9.15135 37.7031C8.72971 37.7893 8.30017 37.5962 8.08494 37.2235L4.36053 30.7742C4.14524 30.4013 4.19271 29.9326 4.47838 29.6105L7.77542 25.8933Z" fill="url(#paint0_linear)" stroke="#118AE0" stroke-width="2" stroke-linecap="round" stroke-linejoin="round"/>
<path d="M23.547 20C21.3379 20 19.547 21.7909 19.547 24C19.547 26.2091 21.3379 28 23.547 28C25.7561 28 27.547 26.2091 27.547 24C27.547 21.7909 25.7561 20 23.547 20Z" fill="white" stroke="#118AE0" stroke-width="2" stroke-linejoin="round"/>
<defs>
<linearGradient id="paint0_linear" x1="2.60529" y1="26.6181" x2="43.0565" y2="26.7996" gradientUnits="userSpaceOnUse">
<stop stop-color="#4FB6E8" stop-opacity="0.29"/>
<stop offset="1" stop-color="#118AE0" stop-opacity="0"/>
</linearGradient>
</defs>
</svg>
