<svg width="118" height="48" viewBox="0 0 118 48" fill="none" xmlns="http://www.w3.org/2000/svg">
	<path fill-rule="evenodd" clip-rule="evenodd" d="M23.8588 0C30.9782 0 37.3683 3.14182 41.7441 8.09891C41.8483 8.23855 41.9525 8.34327 42.0914 8.4829C42.8902 9.28581 43.7237 9.46037 44.8697 9.32073C45.6685 9.216 46.4325 8.90182 47.1271 8.37818C47.6481 7.95927 48.0301 7.43564 48.3079 6.8771C49.0372 5.34109 48.3774 4.224 49.315 2.58327C49.5929 2.12945 49.9402 1.71054 50.3569 1.36145C51.2946 0.593452 52.4754 0.279275 53.6214 0.384002C54.7327 0.488729 55.8441 1.04727 56.6081 2.02472C57.3721 2.96727 57.6847 4.15419 57.5805 5.30619C57.4763 6.42328 56.9207 7.54036 55.9483 8.30836C55.4273 8.76218 54.8022 9.04145 54.1771 9.18109C52.267 9.6349 51.503 8.69237 49.9402 8.62255C49.4192 8.58764 48.8983 8.69236 48.3774 8.832C45.5991 9.77454 44.835 12.1484 45.9811 14.976C47.0924 17.7687 47.7175 20.8058 47.7175 24.0175C47.7175 37.2829 37.021 48 23.8588 48C10.6965 48 0 37.248 0 24.0175C0 10.752 10.6965 0 23.8588 0Z" fill="url(#paint0_linear)" />
	<path fill-rule="evenodd" clip-rule="evenodd" d="M24.7677 0.034668C24.8893 0.034668 25.0109 0.0433529 25.1324 0.0520378C25.254 0.0607227 25.3756 0.0694076 25.4972 0.0694076L26.713 7.5727L28.2414 17.1602C28.5194 17.195 28.7972 17.2645 29.0404 17.4382C29.3878 17.6813 29.5962 18.0634 29.6657 18.4455C29.7352 18.8277 29.6309 19.2445 29.3878 19.5919C29.1446 19.9392 28.7625 20.1477 28.3804 20.2172C27.9983 20.2866 27.5814 20.1824 27.2341 19.9392C26.8867 19.6961 26.6783 19.314 26.6088 18.9319C26.5393 18.5498 26.6435 18.1329 26.8867 17.7855C27.0604 17.5424 27.3035 17.3687 27.5467 17.2645L26.0182 7.67692L25.4624 4.23791L24.7677 0.034668ZM36.3353 3.50842L31.3678 4.30738C31.2636 4.02948 31.0899 3.82105 30.8468 3.64737C30.4994 3.4042 30.0825 3.29999 29.7004 3.36947C29.3183 3.43894 28.9362 3.64737 28.693 3.99474C28.4499 4.34212 28.3457 4.75896 28.4151 5.14107C28.4846 5.52319 28.693 5.90531 29.0404 6.14847C29.3878 6.39163 29.8046 6.49584 30.1867 6.42636C30.5689 6.35689 30.951 6.14847 31.1941 5.80109C31.3678 5.55793 31.472 5.28003 31.472 5.00213L37.2037 4.06422C37.0694 3.96828 36.9139 3.87235 36.7489 3.77056C36.6152 3.68806 36.4752 3.60172 36.3353 3.50842ZM41.0596 7.32954L32.0973 8.78851C31.9931 8.54535 31.8194 8.30219 31.5762 8.1285C31.2289 7.88534 30.812 7.78113 30.4299 7.8506C30.0478 7.92008 29.6657 8.1285 29.4225 8.47587C29.1794 8.82325 29.0751 9.24011 29.1446 9.62222C29.2141 10.0043 29.4225 10.3864 29.7699 10.6296C30.1173 10.8728 30.5341 10.977 30.9162 10.9075C31.2983 10.838 31.6805 10.6296 31.9236 10.2822C32.0973 10.0391 32.2015 9.76116 32.2363 9.48326L41.6849 7.95481L41.0596 7.32954ZM38.5931 42.6924C38.1763 43.005 37.7595 43.3176 37.3079 43.6302L32.8268 44.3597C32.7921 44.6376 32.7226 44.9155 32.5489 45.1587C32.3057 45.506 31.9236 45.7145 31.5415 45.7839C31.1594 45.8534 30.7425 45.7492 30.3952 45.506C30.0478 45.2629 29.8394 44.8808 29.7699 44.4987C29.7004 44.1166 29.8046 43.6997 30.0478 43.3523C30.291 43.0049 30.6731 42.7965 31.0552 42.727C31.4373 42.6576 31.8541 42.7618 32.2015 43.0049C32.4447 43.1786 32.6184 43.4218 32.7226 43.665L38.5931 42.6924ZM28.9362 47.2082L27.4425 37.8985L28.5888 35.2585C28.7972 35.328 29.0057 35.328 29.2141 35.2932C29.5962 35.2238 29.9783 35.0153 30.2215 34.6679C30.4646 34.3206 30.5689 33.9037 30.4994 33.5216C30.4299 33.1395 30.2215 32.7574 29.8741 32.5142C29.5267 32.2711 29.1099 32.1668 28.7278 32.2363C28.3457 32.3058 27.9635 32.5142 27.7204 32.8616C27.4772 33.209 27.373 33.6258 27.4425 34.0079C27.512 34.3553 27.6856 34.7027 27.9635 34.9459L26.6783 37.8291L28.2067 47.3819C28.3227 47.3529 28.4266 47.3299 28.526 47.308L28.526 47.308C28.6647 47.2773 28.7946 47.2486 28.9362 47.2082ZM26.0182 47.6598C25.8967 47.6771 25.7751 47.6858 25.6535 47.6945C25.5319 47.7032 25.4103 47.7119 25.2888 47.7292L23.1003 34.1122L25.1151 29.5615C24.8024 29.3184 24.6287 28.971 24.5593 28.5889C24.4898 28.2068 24.594 27.7899 24.8372 27.4425C25.0803 27.0952 25.4624 26.8868 25.8446 26.8173C26.2267 26.7478 26.6435 26.852 26.9909 27.0952C27.3383 27.3383 27.5467 27.7204 27.6162 28.1026C27.6856 28.4847 27.5814 28.9015 27.3383 29.2489C27.0951 29.5963 26.713 29.8047 26.3309 29.8742C26.1225 29.9089 25.9488 29.9089 25.7403 29.8394L23.8298 34.1816L26.0182 47.6598ZM22.4055 47.6945C22.1624 47.6945 21.9192 47.6598 21.6761 47.625L20.1823 38.2807C20.0434 38.2807 19.8697 38.2459 19.7308 38.1764C19.3486 38.0375 19.036 37.7248 18.8623 37.3427C18.6886 36.9954 18.6886 36.5438 18.8276 36.1617C18.9665 35.7796 19.2792 35.4669 19.6613 35.2932C20.0087 35.1195 20.4602 35.1195 20.8424 35.2585C21.2245 35.3974 21.5371 35.7101 21.7108 36.0922C21.8845 36.4396 21.8845 36.8911 21.7455 37.2733C21.6066 37.6554 21.2939 37.968 20.9118 38.1417H20.8771L22.4055 47.6945ZM18.0286 47.0345L18.0279 47.0343C17.785 46.9649 17.542 46.8955 17.2644 46.8261L16.5696 42.4839C16.4654 42.4839 16.3612 42.4491 16.257 42.4144C15.8749 42.2755 15.5623 41.9628 15.3886 41.5807C15.2149 41.2333 15.2149 40.7817 15.3538 40.3996C15.4928 40.0175 15.8054 39.7049 16.1875 39.5312C16.5349 39.3575 16.9865 39.3575 17.3686 39.4965C17.7507 39.6354 18.0634 39.9481 18.237 40.3302C18.4107 40.6775 18.4107 41.1291 18.2718 41.5112C18.1328 41.8933 17.8202 42.206 17.4381 42.3797C17.4033 42.397 17.3773 42.4057 17.3512 42.4144C17.3252 42.4231 17.2991 42.4318 17.2644 42.4492L18.0286 47.0345ZM9.86531 43.2134C9.65688 43.0744 9.4832 42.9355 9.27477 42.7618L9.86531 41.4418C9.55267 41.1986 9.37898 40.8512 9.30951 40.4691C9.24003 40.087 9.34425 39.6702 9.58741 39.3228C9.83057 38.9754 10.2127 38.767 10.5948 38.6975C10.9769 38.628 11.3938 38.7322 11.7411 38.9754C12.0885 39.2186 12.2969 39.6007 12.3664 39.9828C12.4359 40.3649 12.3317 40.7817 12.0885 41.1291C11.8454 41.4765 11.4632 41.6849 11.0811 41.7544C10.8727 41.7891 10.699 41.7891 10.4906 41.7197L9.86531 43.2134ZM3.68203 36.6132C3.61256 36.509 3.54308 36.3961 3.47361 36.2832C3.40414 36.1703 3.33466 36.0574 3.26518 35.9532L11.498 34.6332C11.5327 34.39 11.6369 34.1469 11.7759 33.9385C12.019 33.5911 12.4011 33.3827 12.7833 33.3132C13.1654 33.2437 13.5822 33.3479 13.9296 33.5911C14.277 33.8343 14.4854 34.2164 14.5549 34.5985C14.6243 34.9806 14.5201 35.3974 14.277 35.7448C14.0338 36.0922 13.6517 36.3006 13.2696 36.3701C12.8875 36.4396 12.4706 36.3353 12.1232 36.0922C11.8453 35.8838 11.6717 35.6406 11.5674 35.328L3.68203 36.6132ZM2.11885 33.7648L15.597 31.611C15.7012 31.8542 15.8749 32.0974 16.1181 32.2711C16.4654 32.5142 16.8823 32.6184 17.2644 32.549C17.6465 32.4795 18.0286 32.2711 18.2718 31.9237C18.5149 31.5763 18.6192 31.1595 18.5497 30.7774C18.4802 30.3952 18.2718 30.0131 17.9244 29.77C17.577 29.5268 17.1602 29.4226 16.7781 29.4921C16.396 29.5615 16.0138 29.77 15.7707 30.1173C15.597 30.3605 15.4928 30.6384 15.4928 30.9163L1.84095 33.1048C1.90592 33.2347 1.95739 33.3647 2.01219 33.503C2.04529 33.5866 2.07961 33.6732 2.11885 33.7648ZM0.79882 30.0131C0.764083 29.8915 0.73803 29.7786 0.711976 29.6657C0.685923 29.5528 0.65987 29.44 0.625133 29.3184L11.4285 27.5815C11.4632 27.3036 11.5327 27.0257 11.7411 26.7825C11.9843 26.4352 12.3664 26.2267 12.7485 26.1573C13.1306 26.0878 13.5475 26.192 13.8949 26.4352C14.2422 26.6783 14.4507 27.0604 14.5201 27.4425C14.5896 27.8247 14.4854 28.2415 14.2422 28.5889C13.9991 28.9363 13.617 29.1447 13.2348 29.2142C12.8527 29.2836 12.4359 29.1794 12.0885 28.9363C11.8454 28.7626 11.6717 28.5194 11.5674 28.2762L0.79882 30.0131ZM0.0693359 22.0582L1.59778 23.7604C1.4241 24.073 1.35462 24.4551 1.4241 24.8025C1.49357 25.1846 1.702 25.5667 2.04937 25.8099C2.39675 26.053 2.8136 26.1573 3.19571 26.0878C3.57782 26.0183 3.95993 25.8099 4.2031 25.4625C4.44626 25.1151 4.55047 24.6983 4.481 24.3162C4.41152 23.9341 4.2031 23.552 3.85572 23.3088C3.50835 23.0656 3.0915 22.9614 2.70938 23.0309C2.50096 23.0656 2.29253 23.1351 2.11885 23.274L0.208284 21.1551C0.138813 21.4329 0.104078 21.7456 0.0693422 22.0582L0.0693359 22.0582ZM1.70199 15.0413L1.70199 15.0413C1.74542 14.9284 1.78884 14.8155 1.84095 14.6939H1.9799C2.18832 14.6591 2.39675 14.5549 2.5357 14.3465C2.67464 14.1728 2.70939 13.9297 2.67465 13.7212C2.63991 13.5823 2.57043 13.4433 2.46622 13.3044C2.49175 13.2533 2.51728 13.2002 2.54333 13.146C2.62358 12.9789 2.70869 12.8017 2.8136 12.6444C2.91781 12.7486 3.02202 12.8528 3.12623 12.9917L8.51054 12.1233L13.3391 16.9866C13.478 16.9171 13.6517 16.8476 13.7906 16.8476C14.1728 16.7781 14.5896 16.8823 14.937 17.1255C15.2844 17.3687 15.4928 17.7508 15.5623 18.1329C15.6317 18.515 15.5275 18.9319 15.2844 19.2792C15.0412 19.6266 14.6591 19.835 14.277 19.9045C13.8949 19.974 13.478 19.8698 13.1306 19.6266C12.7833 19.3835 12.5748 19.0013 12.5054 18.6192C12.4359 18.2371 12.5401 17.8203 12.7833 17.4729L8.26738 12.9223L3.40413 13.7212C3.43887 14.1034 3.36939 14.4855 3.12623 14.8328C2.88307 15.1802 2.50096 15.3886 2.11885 15.4581C2.01983 15.4416 1.92866 15.4329 1.8416 15.4247C1.7454 15.4155 1.65422 15.4069 1.56304 15.3886C1.61515 15.2671 1.65857 15.1542 1.70199 15.0413ZM4.58521 9.79591L5.21048 8.9622L7.5379 8.58009L9.37898 4.89792C9.58741 4.7416 9.79583 4.59396 10.0043 4.44633C10.2127 4.2987 10.4211 4.15106 10.6295 3.99474L8.02422 9.2401L4.58521 9.79591ZM16.4307 1.181C16.5523 1.14626 16.6652 1.11153 16.7781 1.07679C16.891 1.04205 17.0039 1.00731 17.1255 0.972574L18.4107 8.92747L18.4455 9.13589L20.1129 19.5224C20.356 19.5571 20.5992 19.6614 20.8076 19.8003C21.155 20.0435 21.3634 20.4256 21.4329 20.8077C21.5024 21.1898 21.3982 21.6067 21.155 21.954C20.9118 22.3014 20.5297 22.5098 20.1476 22.5793C19.7655 22.6488 19.3486 22.5446 19.0013 22.3014C18.6539 22.0582 18.4455 21.6761 18.376 21.294C18.3065 20.9119 18.4107 20.4951 18.6539 20.1477C18.8623 19.8698 19.1055 19.6961 19.4181 19.5919L17.7507 9.2401L17.716 9.03168L16.4307 1.181ZM20.5645 0.243095L21.2592 4.62001L21.6761 7.12111L23.795 20.1824C23.5519 20.2866 23.3087 20.4603 23.135 20.7035C22.8919 21.0509 22.7877 21.4677 22.8571 21.8498C22.9266 22.2319 23.135 22.614 23.4824 22.8572C23.8298 23.1004 24.2466 23.2046 24.6287 23.1351C25.0109 23.0656 25.393 22.8572 25.6361 22.5098C25.8793 22.1624 25.9835 21.7456 25.914 21.3635C25.8446 20.9814 25.6361 20.5993 25.2888 20.3561C25.0456 20.1824 24.7677 20.0782 24.4898 20.0435L22.3708 6.98217L21.954 4.48106L21.2592 0.104137C21.0501 0.163891 20.8409 0.197955 20.6539 0.228419L20.5645 0.243095ZM31.3678 40.1217C31.7152 40.3649 32.132 40.4691 32.5142 40.3996C32.8963 40.3302 33.2784 40.1217 33.5215 39.7744C33.7647 39.427 33.8689 39.0101 33.7994 38.628C33.7647 38.3849 33.6605 38.1417 33.4868 37.9333L35.6058 35.0501C35.8837 35.1543 36.1616 35.189 36.4395 35.1543C36.8216 35.0848 37.2037 34.8764 37.4469 34.529C37.69 34.1816 37.7943 33.7648 37.7248 33.3827C37.6553 33.0006 37.4469 32.6184 37.0995 32.3753C36.7521 32.1321 36.3353 32.0279 35.9532 32.0974C35.5711 32.1668 35.1889 32.3753 34.9458 32.7227C34.7026 33.07 34.5984 33.4869 34.6679 33.869C34.7026 34.1469 34.8416 34.4248 35.0153 34.6332L32.931 37.4817C32.6531 37.3427 32.3057 37.308 32.0278 37.3427C31.6457 37.4122 31.2636 37.6206 31.0204 37.968C30.7773 38.3154 30.6731 38.7322 30.7425 39.1143C30.812 39.4965 31.0204 39.8786 31.3678 40.1217ZM17.1949 41.7197C17.4033 41.6502 17.5423 41.4765 17.6465 41.2681C17.716 41.0596 17.716 40.8165 17.6465 40.6428C17.577 40.4344 17.4033 40.2954 17.1949 40.1912C16.9865 40.1217 16.7433 40.1217 16.5696 40.1912C16.3612 40.2607 16.2223 40.4344 16.1181 40.6428C16.0486 40.8512 16.0486 41.0944 16.1181 41.3028C16.1875 41.5112 16.3612 41.6502 16.5696 41.7544C16.7781 41.8239 16.9865 41.8239 17.1949 41.7197ZM39.8785 13.3739C39.9132 13.4086 39.948 13.4347 39.9827 13.4607C40.0175 13.4868 40.0522 13.5128 40.0869 13.5476C40.2259 13.7212 40.2953 13.9297 40.2606 14.1381C40.2259 14.3465 40.1217 14.5549 39.948 14.6939C39.7743 14.8328 39.5659 14.9023 39.3574 14.8676C39.2532 14.8676 39.149 14.8328 39.0795 14.7981C39.0581 14.7766 39.0366 14.7684 39.0069 14.7571C38.9886 14.7501 38.9671 14.7419 38.9406 14.7286C38.7669 14.5897 38.628 14.3812 38.5932 14.1728C38.5585 13.9644 38.5932 13.7212 38.7322 13.5476C38.8711 13.3739 39.0795 13.2349 39.288 13.2002C39.4964 13.2349 39.7048 13.2697 39.8785 13.3739ZM37.9332 13.9297C37.8985 14.2076 37.9679 14.4855 38.0722 14.7634L35.3279 17.056C35.1195 16.9171 34.8763 16.8129 34.5984 16.8129C34.2163 16.7781 33.7994 16.8823 33.4521 17.1602C33.1047 17.4381 32.931 17.8203 32.8963 18.2024C32.8615 18.5845 32.9657 19.0013 33.2436 19.3487C33.5215 19.6961 33.9037 19.8698 34.2858 19.9045C34.6679 19.9392 35.0847 19.835 35.4321 19.5571C35.7795 19.2792 35.9532 18.8971 35.9879 18.515C36.0226 18.2024 35.9532 17.8897 35.7795 17.6118L38.5237 15.3539C38.7669 15.5276 39.0448 15.6318 39.3227 15.6665C39.7048 15.7013 40.1217 15.5971 40.469 15.3192C40.7817 15.0413 40.9901 14.6592 41.0248 14.277C41.0596 13.8949 40.9554 13.4781 40.6775 13.1307C40.3996 12.8181 40.0175 12.6096 39.6353 12.5749C39.2532 12.5402 38.8364 12.6444 38.489 12.9223C38.1416 13.1654 37.9679 13.5476 37.9332 13.9297ZM33.7994 18.8624C33.6605 18.6887 33.591 18.4455 33.6258 18.2371C33.6605 18.0287 33.7647 17.8203 33.9384 17.6813C34.1121 17.5424 34.3552 17.4729 34.5637 17.5076C34.7721 17.5424 34.9805 17.6466 35.1195 17.8203C35.2584 17.9939 35.3279 18.2371 35.2932 18.4455C35.2584 18.654 35.1542 18.8624 34.9805 19.0013C34.8068 19.1403 34.5637 19.2098 34.3552 19.175C34.1468 19.1403 33.9384 19.0361 33.7994 18.8624ZM30.812 10.178C30.6036 10.2127 30.3604 10.178 30.1867 10.0391C30.0131 9.90011 29.8741 9.69168 29.8394 9.48326C29.8046 9.27484 29.8394 9.03168 29.9783 8.85799C30.1173 8.6843 30.3257 8.54535 30.5341 8.51061C30.7425 8.47588 30.9857 8.51061 31.1594 8.64956C31.3331 8.78851 31.472 8.99694 31.5068 9.20536C31.5415 9.41379 31.5068 9.65695 31.3678 9.83064C31.2289 10.0391 31.0204 10.1433 30.812 10.178ZM10.9769 41.0597C11.1853 41.0249 11.3938 40.9207 11.5327 40.7123C11.6717 40.5386 11.7064 40.2954 11.6717 40.087C11.6369 39.8786 11.5327 39.6701 11.3243 39.5312C11.1506 39.3922 10.9074 39.3575 10.699 39.3922C10.4906 39.427 10.2822 39.5312 10.1432 39.7396C10.0043 39.9133 9.96952 40.1565 10.0043 40.3649C10.039 40.5733 10.1432 40.7817 10.3516 40.9207C10.5253 41.0596 10.7685 41.0944 10.9769 41.0597ZM13.3391 17.855C13.2001 18.0287 13.1654 18.2719 13.2001 18.4803C13.2348 18.6887 13.3391 18.8971 13.5475 19.0361C13.7212 19.175 13.9643 19.2098 14.1728 19.175C14.3812 19.1403 14.5896 19.0361 14.7286 18.8277C14.8675 18.654 14.9022 18.4108 14.8675 18.2024C14.8328 17.9939 14.7286 17.7855 14.5201 17.6466C14.3464 17.5076 14.1033 17.4729 13.8949 17.5076C13.6517 17.5771 13.4433 17.6813 13.3391 17.855ZM2.25779 24.0383C2.39674 23.8646 2.60517 23.7256 2.8136 23.6909C3.02202 23.6562 3.26518 23.6909 3.43887 23.8299C3.61256 23.9688 3.75151 24.1772 3.78625 24.3857C3.82098 24.5941 3.78624 24.8372 3.64729 25.0109C3.50834 25.1846 3.29992 25.3236 3.0915 25.3583C2.88307 25.393 2.63991 25.3583 2.46622 25.2194C2.29253 25.0804 2.15358 24.872 2.11885 24.6635C2.04937 24.4551 2.11884 24.2467 2.25779 24.0383ZM9.41372 21.6414C9.46583 21.624 9.50925 21.6066 9.55267 21.5893C9.59609 21.5719 9.63951 21.5545 9.69162 21.5372C9.90005 21.5024 10.1432 21.5372 10.3169 21.6761C10.4906 21.8151 10.6295 22.0235 10.6643 22.2319C10.699 22.4403 10.6643 22.6835 10.5253 22.8572C10.4558 22.9614 10.3516 23.0656 10.2127 23.1351C10.1432 23.1698 10.039 23.2046 9.96952 23.2046C9.7611 23.2393 9.51793 23.2046 9.34425 23.0656C9.17056 22.9267 9.03161 22.7182 8.99687 22.5098C8.96213 22.3014 8.99687 22.0582 9.13582 21.8846L9.13583 21.8845C9.20531 21.8151 9.30951 21.7109 9.41372 21.6414ZM9.58741 20.8772C9.96952 20.8077 10.3864 20.9119 10.7337 21.1551C11.0811 21.3982 11.2895 21.7803 11.359 22.1624C11.4285 22.5446 11.3243 22.9614 11.0811 23.3088C10.838 23.6562 10.4558 23.8646 10.0737 23.9341C9.69162 24.0035 9.27477 23.8993 8.9274 23.6562C8.58002 23.413 8.3716 23.0309 8.30212 22.6488C8.26738 22.3709 8.30212 22.0582 8.40634 21.8151L5.52312 19.7656C5.27996 20.0087 5.00206 20.1477 4.68942 20.1824C4.30731 20.2519 3.89046 20.1477 3.54309 19.9045C3.19571 19.6613 2.98728 19.2792 2.91781 18.8971C2.84833 18.515 2.95255 18.0982 3.19571 17.7508C3.43887 17.4034 3.82098 17.195 4.2031 17.1255C4.58521 17.056 5.00206 17.1603 5.34943 17.4034C5.69681 17.6466 5.90524 18.0287 5.97471 18.4108C6.00945 18.654 6.00944 18.9319 5.90523 19.175L8.82318 21.2593C9.03161 21.0161 9.30951 20.9119 9.58741 20.8772ZM3.75151 18.1676C3.61256 18.3413 3.57782 18.5845 3.61256 18.7929C3.6473 19.0013 3.75151 19.2098 3.95993 19.3487C4.13362 19.4877 4.37679 19.5224 4.58521 19.4877C4.79364 19.4529 5.00206 19.3487 5.14101 19.1403C5.27996 18.9666 5.3147 18.7234 5.27996 18.515C5.24522 18.3066 5.14101 18.0982 4.93259 17.9592C4.7589 17.8203 4.51573 17.7855 4.30731 17.8203C4.06415 17.855 3.89046 17.9592 3.75151 18.1676ZM12.158 27.8247C12.1927 28.0331 12.2969 28.2415 12.5054 28.3805C12.679 28.5194 12.9222 28.5541 13.1306 28.5194C13.2696 28.4847 13.4085 28.4499 13.5127 28.3457L13.5475 28.311L13.6517 28.2068C13.7907 28.0331 13.8254 27.7899 13.7906 27.5815C13.7559 27.3731 13.6517 27.1646 13.4433 27.0257C13.2696 26.8867 13.0264 26.852 12.818 26.8867C12.6443 26.9215 12.4706 26.991 12.3664 27.1299L12.2969 27.1994C12.158 27.3731 12.1232 27.5815 12.158 27.8247ZM16.2917 31.3679C16.257 31.2984 16.2223 31.1942 16.2223 31.1247V30.8468C16.2396 30.8121 16.257 30.7687 16.2744 30.7253L16.2744 30.7252C16.2917 30.6818 16.3091 30.6384 16.3265 30.6037C16.4654 30.43 16.6739 30.291 16.8823 30.2563C17.0907 30.2216 17.3339 30.2563 17.5076 30.3952C17.6812 30.5342 17.8202 30.7426 17.8549 30.951V31.0552C17.8549 31.2289 17.8202 31.4026 17.6812 31.5763C17.5423 31.75 17.3339 31.8889 17.1255 31.9237C16.917 31.9584 16.6739 31.9237 16.5002 31.7847C16.4307 31.5763 16.3612 31.4721 16.2917 31.3679ZM13.6864 35.328C13.8254 35.1543 13.8601 34.9111 13.8254 34.7027C13.7906 34.4943 13.6864 34.2858 13.478 34.1469C13.3043 34.0079 13.0612 33.9732 12.8527 34.0079C12.6443 34.0427 12.4359 34.1469 12.2969 34.3553C12.158 34.529 12.1232 34.7722 12.158 34.9806C12.1927 35.189 12.2969 35.3974 12.5054 35.5364C12.679 35.6753 12.9222 35.7101 13.1306 35.6753C13.3738 35.6406 13.5822 35.5017 13.6864 35.328ZM23.6401 21.1529C23.5529 21.3144 23.5337 21.5118 23.5626 21.6851C23.5973 21.8936 23.7015 22.102 23.91 22.2409C24.0836 22.3451 24.3268 22.4146 24.5352 22.3799C24.7437 22.3451 24.9521 22.2409 25.091 22.0325C25.23 21.8588 25.2647 21.6157 25.23 21.4072C25.1954 21.1995 25.0917 20.9918 24.8847 20.8528C24.8805 20.8493 24.8762 20.8459 24.8719 20.8424C24.6982 20.7035 24.4551 20.6687 24.2466 20.7035C24.0382 20.7382 23.8645 20.8424 23.7256 21.0161C23.6907 21.0597 23.6624 21.1055 23.6401 21.1529ZM20.0434 21.9193C20.2518 21.8846 20.4602 21.7803 20.5992 21.5719C20.7381 21.3982 20.7729 21.1551 20.7381 20.9466C20.7034 20.7382 20.5992 20.5298 20.3908 20.3908C20.2171 20.2519 19.9739 20.2171 19.7655 20.2519C19.5571 20.2866 19.3486 20.3908 19.2097 20.5993C19.0707 20.7729 19.036 21.0161 19.0707 21.2245C19.1055 21.433 19.2097 21.6414 19.4181 21.7803C19.5918 21.8846 19.835 21.954 20.0434 21.9193ZM14.798 24.4899C15.1454 24.733 15.5623 24.8372 15.9444 24.7678C16.3265 24.6983 16.6739 24.5246 16.917 24.1772L20.8771 25.9141L47.625 21.6067C47.6082 21.4894 47.5996 21.3722 47.5912 21.2589L47.5912 21.2588C47.5821 21.1371 47.5735 21.0198 47.5555 20.9119L20.9813 25.1846L17.2297 23.5519C17.2644 23.3783 17.2644 23.2046 17.2297 23.0309C17.1602 22.6488 16.9518 22.2667 16.6044 22.0235C16.257 21.7803 15.8402 21.6761 15.458 21.7456C15.0759 21.8151 14.6938 22.0235 14.4507 22.3709C14.2075 22.7182 14.1033 23.1351 14.1728 23.5172C14.2422 23.8646 14.4507 24.2467 14.798 24.4899ZM15.2149 23.8993C15.3886 24.0383 15.6317 24.073 15.8402 24.0383C16.0486 24.0035 16.257 23.8993 16.396 23.6909C16.5349 23.5172 16.5696 23.274 16.5349 23.0656C16.5002 22.8572 16.396 22.6488 16.1875 22.5098C16.0138 22.3709 15.7707 22.3361 15.5623 22.3709C15.3538 22.4056 15.1454 22.5098 15.0065 22.7182C14.8675 22.8919 14.8328 23.1351 14.8675 23.3435C14.9022 23.5867 15.0412 23.7604 15.2149 23.8993ZM20.6339 37.5512C20.8424 37.4817 20.9813 37.308 21.0855 37.0996C21.155 36.8911 21.155 36.648 21.0855 36.4743C21.016 36.2659 20.8424 36.1269 20.6339 36.0227C20.4255 35.9532 20.1823 35.9532 20.0087 36.0227C19.8002 36.0922 19.6613 36.2659 19.5571 36.4743C19.4876 36.6827 19.4876 36.9259 19.5571 37.0996C19.6265 37.308 19.8002 37.4469 20.0087 37.5512C20.2171 37.6206 20.4255 37.6206 20.6339 37.5512ZM33.3826 28.0678C33.3479 28.3457 33.2784 28.6236 33.07 28.8668C32.8268 29.2142 32.4447 29.4226 32.0626 29.4921C31.6805 29.5615 31.2636 29.4573 30.9162 29.2142C30.5689 28.971 30.3604 28.5889 30.291 28.2068C30.2215 27.8247 30.3257 27.4078 30.5689 27.0604C30.812 26.7131 31.1941 26.5046 31.5762 26.4352C31.9584 26.3657 32.3752 26.4699 32.7226 26.7131C32.9657 26.8867 33.1394 27.1299 33.2436 27.3731L47.6944 25.0109C47.6944 25.1325 47.6858 25.254 47.6771 25.3755L47.6771 25.3757C47.6684 25.4972 47.6597 25.6188 47.6597 25.7404L33.3826 28.0678ZM31.9584 28.7626C32.1668 28.7278 32.3752 28.6236 32.5142 28.4152C32.6531 28.2415 32.6878 27.9984 32.6531 27.7899C32.6184 27.5815 32.5142 27.3731 32.3057 27.2341C32.132 27.0952 31.8889 27.0604 31.6805 27.0952C31.472 27.1299 31.2636 27.2341 31.1247 27.4425C30.9857 27.6162 30.951 27.8594 30.9857 28.0678C31.0204 28.2762 31.1247 28.4847 31.3331 28.6236C31.5068 28.7626 31.7499 28.7973 31.9584 28.7626ZM30.812 44.8808C30.9857 45.0197 31.2289 45.0545 31.4373 45.0197C31.6457 44.985 31.8541 44.8808 31.9931 44.6723C32.132 44.4987 32.1668 44.2555 32.132 44.0471C32.0973 43.8386 31.9931 43.6302 31.7847 43.4913C31.611 43.3523 31.3678 43.3176 31.1594 43.3523C30.951 43.3871 30.7425 43.4913 30.6036 43.6997C30.4646 43.8734 30.4299 44.1166 30.4646 44.325C30.4994 44.5681 30.6036 44.7418 30.812 44.8808ZM26.2267 29.1794C26.4351 29.1447 26.6435 29.0405 26.7825 28.832C26.9214 28.6584 26.9562 28.4152 26.9214 28.2068C26.8867 27.9984 26.7825 27.7899 26.574 27.651C26.4004 27.512 26.1572 27.4773 25.9488 27.512C25.7403 27.5468 25.5319 27.651 25.393 27.8594C25.254 28.0331 25.2193 28.2762 25.254 28.4847C25.2888 28.6931 25.393 28.9015 25.6014 29.0405C25.7751 29.1447 26.0182 29.1794 26.2267 29.1794ZM28.4846 34.4248C28.3109 34.2858 28.172 34.0774 28.1372 33.869C28.1025 33.6606 28.1372 33.4174 28.2762 33.2437C28.4151 33.07 28.6236 32.9311 28.832 32.8963C29.0404 32.8616 29.2836 32.8963 29.4573 33.0353C29.6309 33.1742 29.7699 33.3827 29.8046 33.5911C29.8394 33.7995 29.8046 34.0427 29.6657 34.2164C29.5267 34.39 29.3183 34.529 29.1099 34.5637C28.9015 34.5985 28.693 34.5637 28.4846 34.4248ZM35.4842 33.2265L35.4842 33.2263L35.4842 33.2263C35.5016 33.1829 35.519 33.1395 35.5363 33.1048C35.6753 32.9311 35.8837 32.7921 36.0921 32.7574C36.3005 32.7226 36.5437 32.7574 36.7174 32.8963C36.8911 33.0353 37.03 33.2437 37.0648 33.4521C37.0995 33.5911 37.0648 33.73 37.03 33.869C36.9953 33.9385 36.9606 34.0079 36.9258 34.0427C36.7869 34.2164 36.5784 34.3553 36.37 34.39C36.1616 34.4248 35.9184 34.39 35.7447 34.2511C35.5711 34.1121 35.4321 33.9037 35.3974 33.6953C35.3626 33.6258 35.3626 33.4869 35.4321 33.3479C35.4495 33.3132 35.4668 33.2699 35.4842 33.2265ZM32.4099 39.7049C32.2015 39.7396 31.9584 39.7049 31.7847 39.5659C31.611 39.427 31.472 39.2186 31.4373 39.0101C31.4026 38.8017 31.4373 38.5585 31.5762 38.3849C31.7152 38.2112 31.9236 38.0722 32.132 38.0375C32.3405 38.0027 32.5836 38.0375 32.7573 38.1764C32.931 38.3154 33.07 38.5238 33.1047 38.7322C33.1394 38.9407 33.1047 39.1838 32.9657 39.3575C32.8268 39.5659 32.6184 39.6701 32.4099 39.7049ZM29.8046 4.06422C29.5962 4.09896 29.3878 4.20317 29.2488 4.41159C29.1099 4.58528 29.0751 4.82844 29.1099 5.03687C29.1446 5.24529 29.2488 5.45372 29.4573 5.59267C29.6309 5.73162 29.8741 5.76635 30.0825 5.73162C30.291 5.69688 30.4994 5.59267 30.6383 5.38424C30.7773 5.21055 30.812 4.96739 30.7773 4.75897C30.7425 4.55054 30.6383 4.34212 30.4299 4.20317C30.2562 4.09896 30.0478 4.02948 29.8046 4.06422ZM28.841 19.1326C28.7021 19.341 28.4937 19.4452 28.2852 19.48C28.0768 19.5147 27.8336 19.4452 27.66 19.341C27.4515 19.2021 27.3473 18.9937 27.3126 18.7852C27.2778 18.5768 27.3126 18.3336 27.4515 18.16C27.5905 17.9515 27.7989 17.8473 28.0073 17.8126C28.2158 17.7778 28.4589 17.8126 28.6326 17.9515C28.841 18.0905 28.9452 18.2989 28.98 18.5073C29.0147 18.7158 28.98 18.9589 28.841 19.1326Z" fill="url(#paint1_linear)" />
	<path fill-rule="evenodd" clip-rule="evenodd" d="M43.4568 6.8433C44.6031 6.8433 45.5411 5.90539 45.5411 4.75905C45.5411 3.61272 44.6031 2.6748 43.4568 2.6748C42.3105 2.6748 41.3726 3.61272 41.3726 4.75905C41.4073 5.90539 42.3452 6.8433 43.4568 6.8433Z" fill="url(#paint2_linear)" />
	<path fill-rule="evenodd" clip-rule="evenodd" d="M99.2389 27.2665C98.017 27.2665 96.8594 27.2665 95.6696 27.2665C95.6696 26.6506 95.6696 26.0671 95.6696 25.4188C95.541 25.516 95.4767 25.5484 95.4123 25.5808C94.094 26.7478 92.5826 27.3313 90.8462 27.5258C89.6564 27.6555 88.4988 27.6231 87.3734 27.3637C84.5436 26.683 82.5178 24.9649 81.2959 22.3392C80.3955 20.4266 80.1383 18.4168 80.492 16.3422C81.1673 12.5818 83.3539 10.0858 86.9553 8.9188C89.4957 8.10839 92.036 8.23805 94.4477 9.37262C96.4092 10.2803 97.824 11.7066 98.6601 13.6516C98.8852 14.2351 99.0138 14.8834 99.0138 15.5642C99.0138 15.5966 99.0138 15.629 99.0138 15.6614H94.1583C93.5151 14.2675 92.1967 13.2302 90.6533 13.0033C89.6564 12.906 88.6274 13.0681 87.6628 13.5868C87.5985 13.6192 87.5341 13.6516 87.4377 13.7164C86.6659 14.2351 86.055 14.9807 85.6691 15.8559C85.5726 16.1152 85.4762 16.407 85.4119 16.6663C85.3475 17.0229 85.2832 17.3471 85.2832 17.7036C85.2832 17.7036 85.2832 17.7037 85.2832 17.7361C85.2189 18.5465 85.3475 19.3893 85.637 20.1673C86.1836 21.7233 87.2769 22.7282 88.8847 23.0848C90.2674 23.3765 91.5858 23.3117 92.872 22.6309C93.4508 22.3392 93.8367 21.9502 94.0296 21.3991C93.4187 21.3991 92.8399 21.3991 92.2289 21.3991C92.2289 20.1673 92.2289 19.0003 92.2289 17.7685C94.93 17.7685 97.6311 17.7685 100.364 17.7685C100.364 19.0651 100.364 20.3294 100.364 21.6584C99.9785 21.6584 99.5926 21.6584 99.1746 21.6584C99.2389 23.5386 99.2389 25.3863 99.2389 27.2665Z" fill="#1F2D75" />
	<path fill-rule="evenodd" clip-rule="evenodd" d="M111.716 23.571C111.587 22.8902 111.458 22.3067 111.33 21.7232C110.011 21.7232 108.725 21.7232 107.407 21.7232C107.278 22.3067 107.149 22.9227 107.021 23.571C107.535 23.571 108.018 23.571 108.532 23.571C108.532 24.8028 108.532 26.0022 108.532 27.2665C106.056 27.2665 103.58 27.2665 101.008 27.2665C101.008 26.0346 101.008 24.7704 101.008 23.4737C101.426 23.4737 101.812 23.4737 102.23 23.4737C103.355 19.8755 104.448 16.3421 105.574 12.7439C105.059 12.7439 104.609 12.7439 104.127 12.7439C104.127 11.4472 104.127 10.2154 104.127 8.91875C106.699 8.91875 109.272 8.91875 111.876 8.91875C113.388 13.7488 114.899 18.6113 116.443 23.4737C116.861 23.4737 117.214 23.4737 117.6 23.4737C117.6 24.7704 117.6 26.0022 117.6 27.2665C115.124 27.2665 112.648 27.2665 110.14 27.2665C110.14 26.0346 110.14 24.8352 110.14 23.571C110.719 23.571 111.201 23.571 111.716 23.571ZM108.275 18.2223H110.526L109.4 13.2301L108.275 18.2223Z" fill="#1F2D75" />
	<path fill-rule="evenodd" clip-rule="evenodd" d="M74.6719 23.4414C75.2507 23.4414 75.7974 23.4414 76.3762 23.4414C76.3762 24.738 76.3762 25.9698 76.3762 27.2665C73.6751 27.2665 70.974 27.2665 68.2086 27.2665C68.2086 26.0023 68.2086 24.738 68.2086 23.4738C68.7874 23.4738 69.3019 23.4738 69.8807 23.4738V12.8088H69.0446V15.0779C67.6298 15.0779 66.2471 15.0779 64.8 15.0779C64.8 13.0357 64.8 10.9935 64.8 8.9188C69.7842 8.9188 74.7684 8.9188 79.7847 8.9188C79.7847 10.961 79.7847 13.0033 79.7847 15.0779C78.402 15.0779 77.0193 15.0779 75.5401 15.0779V12.8088H74.5754V23.4414H74.6719Z" fill="#1F2D75" />
	<path fill-rule="evenodd" clip-rule="evenodd" d="M67.2 29.6512H69.203C70.6437 29.6512 71.6979 29.7571 72.3304 29.9689C73.2791 30.2865 73.9819 30.8159 74.509 31.5924C75.0361 32.3689 75.282 33.2865 75.282 34.3453C75.282 35.263 75.0712 36.0747 74.6495 36.7806C74.2279 37.4865 73.7008 37.9806 73.0331 38.3336C72.3655 38.6512 71.4519 38.8277 70.222 38.8277H67.2V29.6512ZM68.1488 37.9453H69.2733C70.6085 37.9453 71.5222 37.8747 72.0141 37.6983C72.752 37.4865 73.3142 37.063 73.7008 36.4983C74.1224 35.8983 74.3333 35.1924 74.3333 34.3453C74.3333 33.463 74.1225 32.7218 73.6656 32.0865C73.2088 31.4512 72.6115 31.0277 71.8033 30.8159C71.2059 30.6394 70.222 30.5689 68.8516 30.5689H68.1839V37.9453H68.1488ZM77.039 29.6512H77.9878V38.7924H77.039V29.6512ZM89.5134 31.2042L88.7754 31.8747C88.2484 31.3806 87.651 30.9924 87.0185 30.7453C86.386 30.4983 85.7535 30.3571 85.1561 30.3571C84.3831 30.3571 83.6803 30.5336 83.0126 30.8865C82.3099 31.2394 81.7828 31.7336 81.4314 32.3336C81.0448 32.9336 80.8692 33.5689 80.8692 34.2394C80.8692 34.91 81.08 35.5806 81.4665 36.2159C81.8531 36.8512 82.3801 37.31 83.0829 37.663C83.7857 38.0159 84.5236 38.1924 85.3318 38.1924C86.3157 38.1924 87.1591 37.91 87.8618 37.3806C88.5646 36.8512 88.9512 36.1806 89.0917 35.3336H86.0346V34.4512H90.0756C90.0756 35.863 89.6188 36.9924 88.7403 37.8042C87.8618 38.6512 86.7022 39.0395 85.2264 39.0395C83.4343 39.0395 82.0288 38.4747 81.0097 37.31C80.2015 36.4277 79.815 35.4041 79.815 34.2394C79.815 33.3924 80.061 32.5806 80.5178 31.8394C80.9746 31.0983 81.6071 30.4983 82.4153 30.0747C83.2235 29.6512 84.1371 29.4395 85.121 29.4395C85.9292 29.4395 86.7022 29.5806 87.4402 29.863C88.1078 30.11 88.8106 30.5689 89.5134 31.2042ZM91.7623 29.6512H92.711V38.7924H91.7623V29.6512ZM93.9409 30.5336V29.6512H99.2118V30.5336H97.0683V38.7924H96.0844V30.5336H93.9409ZM104.553 29.6512L109.051 38.7924H107.997L106.486 35.7924H102.304L100.793 38.7924H99.7388L104.272 29.6512H104.553ZM104.412 31.5924L102.761 34.91H106.064L104.412 31.5924ZM110.527 29.6512H111.475V37.91H115.2V38.7924H110.527V29.6512Z" fill="#1F2D75" />
	<defs>
		<linearGradient id="paint0_linear" x1="46.8273" y1="13.7866" x2="7.49453" y2="31.0998" gradientUnits="userSpaceOnUse">
			<stop stop-color="#1F2D75" />
			<stop offset="0.19" stop-color="#183782" />
			<stop offset="0.6" stop-color="#1672B9" />
			<stop offset="1" stop-color="#2299D6" />
		</linearGradient>
		<linearGradient id="paint1_linear" x1="44.2882" y1="17.3511" x2="5.37257" y2="29.6907" gradientUnits="userSpaceOnUse">
			<stop stop-color="#1E2F78" />
			<stop offset="0.08" stop-color="#1D307A" />
			<stop offset="0.21" stop-color="#163883" />
			<stop offset="0.69" stop-color="#4FB6E8" />
			<stop offset="1" stop-color="#5BC5F2" />
		</linearGradient>
		<linearGradient id="paint2_linear" x1="44.9575" y1="4.09616" x2="41.9942" y2="5.40729" gradientUnits="userSpaceOnUse">
			<stop stop-color="#1F2D75" />
			<stop offset="0.19" stop-color="#183782" />
			<stop offset="0.6" stop-color="#1672B9" />
			<stop offset="1" stop-color="#2299D6" />
		</linearGradient>
	</defs>
</svg>
